<svg id="Calque_1" data-name="Calque 1" xmlns="http://www.w3.org/2000/svg" xmlns:xlink="http://www.w3.org/1999/xlink" viewBox="0 0 715.81 157.68"><defs><style>.cls-1{fill:none;}.cls-2{fill:#0c0c0c;}.cls-3{clip-path:url(#clip-path);}</style><clipPath id="clip-path"><rect class="cls-1" x="-964.07" y="513.73" width="1351.73" height="760.35" transform="translate(-576.41 1787.81) rotate(180)"/></clipPath></defs><title>GC__client6_light</title><path class="cls-2" d="M0,157.68H157.67V0H0Zm14.15-87.4V14.16H71.76L14.15,70.28,30.8,81.14,49.43,63.5v80H71.76V14.16H85.91V143.53h22.33v-80l18.63,17.64,16.65-10.86L85.91,14.16h57.61V143.53H14.15Z"/><path class="cls-2" d="M223.28,16.75l-39.09,90.46h22L213.7,88h35.14l7.79,19.17h22.49L239.76,16.75ZM220,71.18l11-28.11,11.11,28.11Z"/><path class="cls-2" d="M345.62,22.44A30.2,30.2,0,0,0,334.69,18a66.45,66.45,0,0,0-13.29-1.28H287.8v90.46h19.93V71.94H322.3a61.83,61.83,0,0,0,13.29-1.34,28.36,28.36,0,0,0,10.6-4.53,21.92,21.92,0,0,0,7-8.56,30.88,30.88,0,0,0,2.55-13.29q0-8.05-2.74-13.35A22.33,22.33,0,0,0,345.62,22.44ZM333.86,49.52a9.16,9.16,0,0,1-3.19,3.32,13.75,13.75,0,0,1-4.47,1.73,25.78,25.78,0,0,1-5.18.51H307.73V33.61H318a57.48,57.48,0,0,1,5.87.32,17.83,17.83,0,0,1,5.56,1.47,10.76,10.76,0,0,1,4.09,3.26,9,9,0,0,1,1.6,5.56A10.47,10.47,0,0,1,333.86,49.52Z"/><polygon class="cls-2" points="388.61 70.41 414.18 70.41 414.18 52.01 388.61 52.01 388.61 35.15 430.13 35.15 430.13 16.75 368.68 16.75 368.68 107.21 432.43 107.21 432.43 88.81 388.61 88.81 388.61 70.41"/><path class="cls-2" d="M588.17,88.55a22.4,22.4,0,0,1-10.86,2.56,23.46,23.46,0,0,1-10-2.17,24.59,24.59,0,0,1-8.11-6.07,29,29,0,0,1-5.43-9.2,33.2,33.2,0,0,1-2-11.69,33.38,33.38,0,0,1,2-11.63,28.14,28.14,0,0,1,5.5-9.26A24.74,24.74,0,0,1,578,32.85a24.12,24.12,0,0,1,9.9,1.91,19.49,19.49,0,0,1,7.22,5.5l15.34-12.52a30.71,30.71,0,0,0-6.65-6.26A36.13,36.13,0,0,0,596,17.39a43.36,43.36,0,0,0-8.18-2.24,48.59,48.59,0,0,0-8-.7,55.83,55.83,0,0,0-19.55,3.32,44.93,44.93,0,0,0-15.46,9.52,43.3,43.3,0,0,0-10.16,15A51.26,51.26,0,0,0,531.06,62a51.17,51.17,0,0,0,3.64,19.67,43.24,43.24,0,0,0,10.16,15,44.93,44.93,0,0,0,15.46,9.52,55.83,55.83,0,0,0,19.55,3.32A45,45,0,0,0,598,105.67a34.55,34.55,0,0,0,14.57-11.88L596,81.4A21.61,21.61,0,0,1,588.17,88.55Z"/><path class="cls-2" d="M712.17,42.3a43.16,43.16,0,0,0-10.16-15,44.84,44.84,0,0,0-15.46-9.52,59.19,59.19,0,0,0-39.09,0A44.74,44.74,0,0,0,632,27.29a43.16,43.16,0,0,0-10.16,15A51.07,51.07,0,0,0,618.2,62a51,51,0,0,0,3.64,19.67,43.11,43.11,0,0,0,10.16,15,44.74,44.74,0,0,0,15.46,9.52,59.19,59.19,0,0,0,39.09,0A44.84,44.84,0,0,0,702,96.67a43.11,43.11,0,0,0,10.16-15A51,51,0,0,0,715.81,62,51.07,51.07,0,0,0,712.17,42.3Zm-19,31.37a26.74,26.74,0,0,1-5.68,9.2,26,26,0,0,1-8.88,6.07,31.9,31.9,0,0,1-23.13,0,26,26,0,0,1-8.88-6.07,26.74,26.74,0,0,1-5.68-9.2,33,33,0,0,1-2-11.69,33.15,33.15,0,0,1,2-11.63,26.63,26.63,0,0,1,5.68-9.26A26,26,0,0,1,655.44,35a31.9,31.9,0,0,1,23.13,0,26,26,0,0,1,8.88,6.07,26.63,26.63,0,0,1,5.68,9.26,33.38,33.38,0,0,1,2,11.63A33.2,33.2,0,0,1,693.13,73.67Z"/><polygon class="cls-2" points="531.06 16.75 506.02 16.75 485.84 44.66 465.65 16.75 440.61 16.75 473.31 61.98 440.61 107.21 465.65 107.21 485.84 79.31 506.02 107.21 531.06 107.21 498.36 61.98 531.06 16.75"/><path class="cls-2" d="M193,119.23h3.57L205,142.52h-3.46l-2.36-7h-9.21l-2.52,7h-3.23ZM198.14,133l-3.54-10.28L190.84,133Z"/><path class="cls-2" d="M208.14,119.23h10.42a7.07,7.07,0,0,1,5,1.75,6.35,6.35,0,0,1,1.9,4.92,7.14,7.14,0,0,1-1.69,4.75,6.4,6.4,0,0,1-5.19,2h-7.28v9.85h-3.15Zm12.24,3.2a7,7,0,0,0-2.85-.49h-6.24V130h6.24a6,6,0,0,0,3.42-.9,3.6,3.6,0,0,0,1.31-3.19A3.53,3.53,0,0,0,220.38,122.43Z"/><path class="cls-2" d="M229.79,119.23h10.43a7.07,7.07,0,0,1,5,1.75,6.39,6.39,0,0,1,1.9,4.92,7.15,7.15,0,0,1-1.7,4.75,6.38,6.38,0,0,1-5.19,2H233v9.85h-3.16Zm12.24,3.2a6.89,6.89,0,0,0-2.85-.49H233V130h6.23a6,6,0,0,0,3.43-.9,3.62,3.62,0,0,0,1.31-3.19A3.52,3.52,0,0,0,242,122.43Z"/><path class="cls-2" d="M254.56,119.23v14.4a8.38,8.38,0,0,0,1,4.21,5,5,0,0,0,4.79,2.54c2.7,0,4.53-.92,5.5-2.74a8.72,8.72,0,0,0,.78-4v-14.4h3.19v13.08a15,15,0,0,1-1.17,6.61q-2.13,4.22-8,4.22t-8-4.22a15.15,15.15,0,0,1-1.16-6.61V119.23Z"/><path class="cls-2" d="M275.31,119.23h3.19v23.29h-3.19Z"/><path class="cls-2" d="M292.94,119.23h16.9v2.85H296v7.07h12.78v2.7H296v7.9h14.07v2.77H292.94Z"/><path class="cls-2" d="M316.25,142.52h-3.79l8.25-12L313,119.23h3.93l5.88,8.91,5.83-8.91h3.74l-7.72,11.34,8.1,12h-3.9l-6.21-9.58Z"/><path class="cls-2" d="M336.25,119.23h10.42a7.07,7.07,0,0,1,5,1.75,6.35,6.35,0,0,1,1.9,4.92,7.14,7.14,0,0,1-1.69,4.75,6.4,6.4,0,0,1-5.19,2H339.4v9.85h-3.15Zm12.24,3.2a7,7,0,0,0-2.85-.49H339.4V130h6.24a6,6,0,0,0,3.42-.9,3.6,3.6,0,0,0,1.31-3.19A3.53,3.53,0,0,0,348.49,122.43Z"/><path class="cls-2" d="M357.9,119.23h16.9v2.85H361v7.07h12.78v2.7H361v7.9H375v2.77H357.9Z"/><path class="cls-2" d="M379.64,119.23h10.58a10.37,10.37,0,0,1,4.32.78q3.22,1.48,3.22,5.5a6.24,6.24,0,0,1-.86,3.42,6.31,6.31,0,0,1-2.42,2.14,4.77,4.77,0,0,1,2,1.46,5.2,5.2,0,0,1,.77,2.93l.11,3.13a10,10,0,0,0,.22,2,2,2,0,0,0,1,1.43v.52h-3.87a3,3,0,0,1-.26-.78,15.8,15.8,0,0,1-.15-1.84l-.19-3.88a3.28,3.28,0,0,0-1.65-3.06,6.6,6.6,0,0,0-2.76-.43h-7v10h-3.15Zm10.25,10.67a5.82,5.82,0,0,0,3.41-.89,3.65,3.65,0,0,0,1.26-3.2,3.45,3.45,0,0,0-1.76-3.39,5.55,5.55,0,0,0-2.51-.48h-7.5v8Z"/><path class="cls-2" d="M419.07,119.23V122h-7.85v20.52H408V122h-7.84v-2.77Z"/><path class="cls-2" d="M424,135a6.49,6.49,0,0,0,.9,3.22q1.51,2.33,5.33,2.32a9.12,9.12,0,0,0,3.12-.51,3.57,3.57,0,0,0,2.71-3.52,3.07,3.07,0,0,0-1.15-2.71,11.31,11.31,0,0,0-3.65-1.38l-3.06-.71a13.67,13.67,0,0,1-4.24-1.54,4.93,4.93,0,0,1-2.15-4.36,6.8,6.8,0,0,1,2.12-5.15,8.28,8.28,0,0,1,6-2,10.21,10.21,0,0,1,6.06,1.77q2.49,1.77,2.49,5.65h-3a6,6,0,0,0-1-2.87q-1.38-1.81-4.7-1.82a5.28,5.28,0,0,0-3.84,1.17,3.76,3.76,0,0,0-1.17,2.73,2.69,2.69,0,0,0,1.38,2.51,20.16,20.16,0,0,0,4.1,1.26l3.17.75a9.64,9.64,0,0,1,3.53,1.47,5.6,5.6,0,0,1,2.15,4.74c0,2.58-.92,4.43-2.74,5.54a12.16,12.16,0,0,1-6.38,1.66,9.36,9.36,0,0,1-6.63-2.22,7.55,7.55,0,0,1-2.35-6Z"/><path class="cls-2" d="M454.85,126.71a5.63,5.63,0,0,1-.49-2.23,5,5,0,0,1,1.51-3.74,5.61,5.61,0,0,1,4.07-1.48,5,5,0,0,1,3.77,1.38,4.52,4.52,0,0,1,1.36,3.3,5.94,5.94,0,0,1-1.4,3.91,13.15,13.15,0,0,1-2.75,2.27l4.23,5.07c.28-.84.48-1.47.59-1.89s.22-1,.33-1.75h2.71a17.29,17.29,0,0,1-1.07,4.29q-.81,2.06-.81,1.65l4.13,5h-3.67l-2.18-2.66a11.44,11.44,0,0,1-2.37,2.06,8.16,8.16,0,0,1-4.33,1.14q-3.62,0-5.26-2a6.72,6.72,0,0,1-1.64-4.41,6.37,6.37,0,0,1,1.6-4.43,17.11,17.11,0,0,1,3.65-2.69A12.36,12.36,0,0,1,454.85,126.71Zm6.86,13a6.81,6.81,0,0,0,1.94-1.81l-5.24-6.42a15.38,15.38,0,0,0-2.9,2.28,4.22,4.22,0,0,0-1,2.9,3.32,3.32,0,0,0,1.35,2.85,4.73,4.73,0,0,0,2.88,1A5.54,5.54,0,0,0,461.71,139.75Zm-.22-13.2a3.62,3.62,0,0,0,.92-2.39,2.57,2.57,0,0,0-.68-1.78,2.37,2.37,0,0,0-1.83-.74,2.56,2.56,0,0,0-2.42,1.17,2.6,2.6,0,0,0-.35,1.31,3.54,3.54,0,0,0,.53,1.85,17.53,17.53,0,0,0,1.77,2.3A12.25,12.25,0,0,0,461.49,126.55Z"/><path class="cls-2" d="M499.79,120.93a8.26,8.26,0,0,1,2.68,5.29H499.4a5.85,5.85,0,0,0-6.36-4.88,6.84,6.84,0,0,0-5.45,2.42q-2.08,2.42-2.08,7.42a11,11,0,0,0,1.87,6.64,6.54,6.54,0,0,0,5.6,2.54,5.87,5.87,0,0,0,5.22-2.68,10.27,10.27,0,0,0,1.42-3.71h3.07a10.57,10.57,0,0,1-2.69,6.17,9.54,9.54,0,0,1-7.4,3,9.7,9.7,0,0,1-6.74-2.46q-3.58-3.26-3.59-10a12.93,12.93,0,0,1,2.7-8.46,9.78,9.78,0,0,1,8-3.58A9.34,9.34,0,0,1,499.79,120.93Z"/><path class="cls-2" d="M526,122.56a12.86,12.86,0,0,1,2.31,7.91,13.85,13.85,0,0,1-2.64,8.67,11.76,11.76,0,0,1-17.31.51,13.41,13.41,0,0,1-2.75-8.66,13.71,13.71,0,0,1,2.35-8.08q3-4.32,8.91-4.31Q523,118.6,526,122.56Zm-2.78,14.84a12.72,12.72,0,0,0,1.86-6.87,9.83,9.83,0,0,0-2.15-6.62A7.33,7.33,0,0,0,517,121.4a7.64,7.64,0,0,0-5.9,2.49q-2.28,2.48-2.28,7.32a10.7,10.7,0,0,0,2,6.53q1.95,2.65,6.35,2.65C519.91,140.39,521.93,139.4,523.17,137.4Z"/><path class="cls-2" d="M532,119.23h3.72l11.61,18.82V119.23h3v23.29h-3.54L535,123.72v18.8h-3Z"/><path class="cls-2" d="M557.53,135a6.49,6.49,0,0,0,.9,3.22q1.52,2.33,5.33,2.32a9.12,9.12,0,0,0,3.12-.51,3.57,3.57,0,0,0,2.71-3.52,3.07,3.07,0,0,0-1.15-2.71,11.31,11.31,0,0,0-3.65-1.38l-3.06-.71a13.77,13.77,0,0,1-4.24-1.54,4.93,4.93,0,0,1-2.15-4.36,6.8,6.8,0,0,1,2.12-5.15,8.28,8.28,0,0,1,6-2,10.19,10.19,0,0,1,6.06,1.77q2.49,1.77,2.49,5.65h-3a6,6,0,0,0-1-2.87c-.92-1.21-2.49-1.82-4.69-1.82a5.29,5.29,0,0,0-3.85,1.17,3.76,3.76,0,0,0-1.17,2.73,2.69,2.69,0,0,0,1.38,2.51,20.16,20.16,0,0,0,4.1,1.26l3.17.75a9.64,9.64,0,0,1,3.53,1.47,5.6,5.6,0,0,1,2.15,4.74q0,3.87-2.74,5.54a12.16,12.16,0,0,1-6.38,1.66,9.36,9.36,0,0,1-6.63-2.22,7.55,7.55,0,0,1-2.35-6Z"/><path class="cls-2" d="M580.53,119.23v14.4a8.38,8.38,0,0,0,1,4.21,5.06,5.06,0,0,0,4.8,2.54c2.69,0,4.52-.92,5.49-2.74a8.71,8.71,0,0,0,.79-4v-14.4h3.18v13.08a15.15,15.15,0,0,1-1.16,6.61q-2.13,4.22-8.05,4.22t-8-4.22a15,15,0,0,1-1.16-6.61V119.23Z"/><path class="cls-2" d="M600.57,119.23h3.16v20.52h11.68v2.77H600.57Z"/><path class="cls-2" d="M633.17,119.23V122h-7.85v20.52h-3.19V122h-7.84v-2.77Z"/><path class="cls-2" d="M640.44,119.23H644l8.45,23.29H649l-2.36-7h-9.21l-2.52,7h-3.23ZM645.63,133l-3.54-10.28L638.33,133Z"/><path class="cls-2" d="M655.33,119.23H659l11.62,18.82V119.23h3v23.29h-3.54l-11.79-18.8v18.8h-3Z"/><path class="cls-2" d="M695.71,119.23V122h-7.85v20.52h-3.19V122h-7.84v-2.77Z"/><path class="cls-2" d="M700.67,135a6.49,6.49,0,0,0,.9,3.22q1.51,2.33,5.33,2.32A9.12,9.12,0,0,0,710,140a3.57,3.57,0,0,0,2.71-3.52,3.07,3.07,0,0,0-1.15-2.71,11.31,11.31,0,0,0-3.65-1.38l-3.06-.71a13.67,13.67,0,0,1-4.24-1.54,4.93,4.93,0,0,1-2.15-4.36,6.8,6.8,0,0,1,2.12-5.15,8.28,8.28,0,0,1,6-2,10.21,10.21,0,0,1,6.06,1.77q2.49,1.77,2.49,5.65h-3a6,6,0,0,0-1-2.87q-1.38-1.81-4.7-1.82a5.28,5.28,0,0,0-3.84,1.17,3.76,3.76,0,0,0-1.17,2.73,2.69,2.69,0,0,0,1.38,2.51A19.94,19.94,0,0,0,707,129l3.17.75a9.64,9.64,0,0,1,3.53,1.47,5.6,5.6,0,0,1,2.15,4.74q0,3.87-2.75,5.54a12.1,12.1,0,0,1-6.37,1.66,9.36,9.36,0,0,1-6.63-2.22,7.55,7.55,0,0,1-2.35-6Z"/><g class="cls-3"><path d="M-288.14,990.21c337.9,0,675.8-183.72,675.8-526.09S49.76-62.1-288.14-62.1-964.07,121.63-964.07,464.12-626.17,990.21-288.14,990.21Z"/></g></svg>