<svg id="Calque_1" data-name="Calque 1" xmlns="http://www.w3.org/2000/svg" xmlns:xlink="http://www.w3.org/1999/xlink" viewBox="0 0 1351.73 760.35"><defs><style>.cls-1{fill:none;}.cls-2{clip-path:url(#clip-path);}.cls-3{clip-path:url(#clip-path-2);}</style><clipPath id="clip-path"><rect class="cls-1" width="1351.73" height="760.35" transform="translate(1351.73 760.35) rotate(180)"/></clipPath><clipPath id="clip-path-2"><rect class="cls-1" y="935.26" width="1351.73" height="760.35" transform="translate(1351.73 2630.86) rotate(180)"/></clipPath></defs><title>GC__GC_pattern 2</title><rect class="cls-1" width="1351.73" height="760.35" transform="translate(1351.73 760.35) rotate(180)"/><g class="cls-2"><path d="M675.93,476.48c337.9,0,675.8-183.72,675.8-526.09s-337.9-526.22-675.8-526.22S0-392.1,0-49.61,337.9,476.48,675.93,476.48Z"/><path d="M297.35,1066C506.19,1066,715,952.44,715,740.85S506.19,415.62,297.35,415.62-120.4,529.17-120.4,740.85,88.43,1066,297.35,1066Z"/></g><g class="cls-3"><path d="M297.35,629.61C506.19,629.61,715,743.16,715,954.76S506.19,1280,297.35,1280-120.4,1166.44-120.4,954.76,88.43,629.61,297.35,629.61Z"/></g></svg>