<svg id="Calque_1" data-name="Calque 1" xmlns="http://www.w3.org/2000/svg" viewBox="0 0 2656.63 1268.38"><defs><style>.cls-1{opacity:0.1;}.cls-2{font-size:101.47px;font-family:ITCAvantGardeStd-Md, ITC Avant Garde Gothic Std;font-weight:500;}.cls-3{fill:none;stroke:#0c0c0c;stroke-miterlimit:10;stroke-width:2.4px;}</style></defs><title>GC__Plan de travail 52</title><path class="cls-1" d="M1029.23,634.12c0-225.61,122-393.94,299.07-500.09C1182,46.4,998.14,1.21,814.23,1.21c-406.51,0-813,221-813,632.91s406.5,633.05,813,633.05c183.91,0,367.79-45.19,514.07-132.85C1151.19,1028.16,1029.23,859.8,1029.23,634.12Z"/><path class="cls-1" d="M1842.25,1.21c-183.88,0-367.7,45.22-513.95,132.82,177.15,106.12,299.11,274.48,299.11,500.09s-122,394.07-299.11,500.2c146.25,87.62,330.07,132.85,514,132.85,406.66,0,813.17-221,813.17-633.05S2248.91,1.21,1842.25,1.21Z"/><text class="cls-2" transform="translate(243.93 663.66)">Les sociétés</text><text class="cls-2" transform="translate(1967.67 663.66)">Clients</text><path class="cls-3" d="M814.22,1.2c-406.51,0-813,221-813,632.91,0,412,406.51,633.06,813,633.06,406.66,0,813.17-221,813.17-633.06C1627.39,222.23,1220.88,1.2,814.22,1.2Z"/><path class="cls-3" d="M1842.26,1.2c-406.51,0-813,221-813,632.91,0,412,406.51,633.06,813,633.06,406.66,0,813.17-221,813.17-633.06C2655.43,222.23,2248.92,1.2,1842.26,1.2Z"/></svg>