<svg id="Calque_1" data-name="Calque 1" xmlns="http://www.w3.org/2000/svg" viewBox="0 0 1247.45 504.22"><defs><style>.cls-1{fill:#fff;}</style></defs><title>GC__logo mark white</title><path class="cls-1" d="M361.53,297.8V206.42H843.44V297.8Z"/><path class="cls-1" d="M527.76,333.06c-18.37,22.17-44.34,40.4-75,53.76-37.67,16.25-82.62,25.37-130,25.37-125.6,0-203.81-64.4-203.81-160.38,0-94,80.19-159.77,204.42-159.77,47.23,0,92.19,9.26,129.85,26.12,30.53,13.36,56.35,31.74,74.88,53.76,18.37-22,44-40.25,74.42-53.61A231.08,231.08,0,0,0,564.67,79a307.64,307.64,0,0,0-36.75-26c-56-33.56-127.27-53-204.58-53C228.72,0,142.61,29,82.16,79,28.25,123.62,0,182.86,0,251.81,0,321.52,27.49,381.36,81.41,426c59.23,49.36,144.73,78.21,241.32,78.21,78.67,0,149-18.83,204.73-52.09A314.21,314.21,0,0,0,564.67,426a234.31,234.31,0,0,0,37.66-39.19C571.81,373.31,546.14,355.23,527.76,333.06Z"/><path class="cls-1" d="M1165.29,79C1105.45,29.61,1019.33,0,924,0,847.11,0,775.88,19.14,719.53,53a297.76,297.76,0,0,0-36.9,26,229.55,229.55,0,0,0-37.82,39.19c30.53,13.36,56.35,31.74,74.88,53.76,18.37-22,44-40.25,74.42-53.61C832.07,101.45,877,92,924,92c125,0,204.42,65.76,204.42,159.77,0,96-78.82,160.38-205,160.38-47.08,0-91.73-9.12-129.24-25.37-.16-.15-.16,0-.16,0-30.52-13.51-56.19-31.59-74.57-53.76-18.37,22.17-44.34,40.4-75,53.76A228.48,228.48,0,0,0,682,426a300.58,300.58,0,0,0,37.06,26.12c55.43,33.26,126.21,52.09,204.27,52.09,97.2,0,182.1-28.85,241.94-78.21,53.91-44.65,82.16-104.49,82.16-174.2C1247.45,182.86,1219.2,123.62,1165.29,79Z"/></svg>