<svg id="Calque_1" data-name="Calque 1" xmlns="http://www.w3.org/2000/svg" xmlns:xlink="http://www.w3.org/1999/xlink" viewBox="0 0 635.11 157.68"><defs><style>.cls-1{fill:none;}.cls-2{fill:#fff;}.cls-3{clip-path:url(#clip-path);}.cls-4{clip-path:url(#clip-path-2);}</style><clipPath id="clip-path"><rect class="cls-1" x="-1415.11" y="214.19" width="1351.73" height="760.35"/></clipPath><clipPath id="clip-path-2"><rect class="cls-1" x="111.53" y="214.19" width="1351.73" height="760.35" transform="translate(1574.8 1188.72) rotate(180)"/></clipPath></defs><title>GC__client4_dark</title><path class="cls-2" d="M287.44,104.89H270.56L260.38,52l-19.75,54.18H234.4L214.64,52l-10.58,52.91H187.25L207,6.7h9.24l21.23,66.11L258.24,6.7h9.18Z"/><path class="cls-2" d="M355.42,104.82l-7.17-19.89H314.63l-6.83,19.89H288.45L327.56,5.36h7.63l39.45,99.46Zm-24-69.45L319.59,71.6h23.57Z"/><path class="cls-2" d="M440.35,104.82,414.16,64.3q-4-.06-11.05-.47v41H385V6.7c1,0,4.76-.16,11.32-.5s11.86-.5,15.88-.5q37.36,0,37.37,28.93a26.56,26.56,0,0,1-5.16,15.88,28,28,0,0,1-13,10.11l29,44.2Zm-37.24-83V49.1c3.21.27,5.67.4,7.36.4q10.92,0,16-3.08t5.05-12q0-7.23-5.42-10.11T409,21.44A45.19,45.19,0,0,0,403.11,21.84Z"/><path class="cls-2" d="M464.12,54.93q0-21,11.49-35.47T506.32,5q21.15,0,32.34,13.13t11.19,36.84q0,23.7-11.69,37.64T505,106.5q-19.77,0-30.31-13.8T464.12,54.93Zm18.08,0q0,17.21,5.83,26.65A18.74,18.74,0,0,0,505,91q13,0,19.92-9.25t6.87-26.85q0-34.5-25.45-34.5-11.65,0-17.89,9.35T482.2,54.93Z"/><path class="cls-2" d="M632.5,11.93l-7.17,14.4q-5.83-5.83-18.75-5.83-12.26,0-20.1,10.28t-7.83,26q0,15.74,7.26,25A23.44,23.44,0,0,0,605.3,91q13.88,0,21.7-9.92l8.11,14.07q-10.65,11.31-31.21,11.32T572,93q-11.38-13.53-11.39-36.91,0-21.77,12.63-36.4T605.5,5Q622.39,5,632.5,11.93Z"/><rect class="cls-2" x="113.05" y="91.31" width="13" height="2.91"/><rect class="cls-2" x="113.05" y="97.37" width="13" height="2.91"/><path class="cls-2" d="M114.35,26.08v3.38h11V26.08Zm0,0v3.38h11V26.08ZM146.37,0H20.21A20.21,20.21,0,0,0,0,20.25V137.47a20.17,20.17,0,0,0,20.21,20.21H146.37a20.2,20.2,0,0,0,20.21-20.21V20.25A20.23,20.23,0,0,0,146.37,0ZM99.07,144.05q-8.28,2.83-23.52,2.84c-10.08,0-17.88-2.88-23.32-8.59s-8.15-13.87-8.15-24.38V62.55H32.34V43.49H44.08V22.85L67.79,14.1V43.49H95.64V62.55H67.79V107c0,7.25,1.14,12.41,3.43,15.41s6.22,4.49,11.93,4.49a29.32,29.32,0,0,0,15.92-4.65Zm7.05-129.79h27.53V41H106.12Zm28.12,131.09H106.71V47.19h27.53ZM114.35,29.46h11V26.08h-11ZM57.27,46.36H54.36v4.93h-5V54.2h5v5.12h2.91V54.2h5V51.29h-5Z"/><rect class="cls-2" x="113.05" y="91.31" width="13" height="2.91"/><rect class="cls-2" x="113.05" y="97.37" width="13" height="2.91"/><rect class="cls-2" x="114.35" y="26.08" width="10.95" height="3.39"/><path class="cls-2" d="M57.27,51.29V46.36H54.36v4.93h-5V54.2h5v5.12h2.91V54.2h5V51.29Z"/><path class="cls-2" d="M114.35,26.08v3.38h11V26.08Z"/><path class="cls-2" d="M113.05,97.37v2.92h13V97.37Zm0-6.06v2.91h13V91.31Z"/><path class="cls-2" d="M57.27,51.29V46.36H54.36v4.93h-5V54.2h5v5.12h2.91V54.2h5V51.29Z"/><path class="cls-2" d="M205.21,153.68h-4.57c-1.5,0-1.92-.3-2.76-2.28L188,128.5c-.9-2.11-.48-2.41,1.62-3.31l2.82-1.2c2-.85,2.65-.12,3.61,2.34l6.49,16.29L205.45,129c.48-2.11,1.32-2.41,2.88-2.41h2.77c1.56,0,2.16.3,2.88,2.41l4.51,13.4L223,124.23c.6-2.41,1.57-3,3.55-2.35l3.42,1c2.11.61,2.23,1.27,1.63,3.31l-7,25.19c-.55,2-1.27,2.28-2.77,2.28h-4.57c-1.5,0-2-.3-2.76-2.28l-3.85-11-2.65,11C207.49,153.38,206.71,153.68,205.21,153.68Z"/><path class="cls-2" d="M250.35,153.68h-4.57c-1.5,0-1.92-.3-2.76-2.28l-9.86-22.9c-.9-2.11-.48-2.41,1.62-3.31l2.83-1.2c2-.85,2.64-.12,3.6,2.34l6.5,16.29L250.59,129c.48-2.11,1.32-2.41,2.89-2.41h2.76c1.56,0,2.17.3,2.89,2.41l4.5,13.4,4.51-18.21c.6-2.41,1.57-3,3.55-2.35l3.43,1c2.1.61,2.22,1.27,1.62,3.31l-7,25.19c-.54,2-1.27,2.28-2.77,2.28h-4.57c-1.5,0-2-.3-2.76-2.28l-3.85-11-2.64,11C252.63,153.38,251.85,153.68,250.35,153.68Z"/><path class="cls-2" d="M295.49,153.68h-4.57c-1.5,0-1.92-.3-2.76-2.28l-9.86-22.9c-.9-2.11-.48-2.41,1.62-3.31l2.83-1.2c2-.85,2.64-.12,3.6,2.34l6.5,16.29L295.73,129c.48-2.11,1.32-2.41,2.89-2.41h2.76c1.56,0,2.17.3,2.89,2.41l4.51,13.4,4.5-18.21c.61-2.41,1.57-3,3.55-2.35l3.43,1c2.1.61,2.22,1.27,1.62,3.31l-7,25.19c-.54,2-1.27,2.28-2.77,2.28h-4.57c-1.5,0-2-.3-2.76-2.28l-3.85-11-2.64,11C297.78,153.38,297,153.68,295.49,153.68Z"/><path class="cls-2" d="M321.52,149.23a5.14,5.14,0,1,1,5.11,5.17A5.19,5.19,0,0,1,321.52,149.23Z"/><path class="cls-2" d="M349.17,155c-6.55,0-10.34-4.08-10.34-12.2V135l-3.49-.18c-1.32-.06-1.68-.72-1.68-1.87v-4.81a2,2,0,0,1,2-2l3.13.18v-6.85a1.6,1.6,0,0,1,1.8-1.81h4.81a1.61,1.61,0,0,1,1.81,1.81v7.33l8.65.54c1.32.06,1.68.72,1.68,1.87V134a2,2,0,0,1-2,2l-8.29-.48v5.77c0,3.85,1.56,5.11,4.08,5.11a9.41,9.41,0,0,0,4.63-1.75c.9-.54,1.74-.06,2.23,1.09l1.56,3.48c.48,1,.78,1.81-.24,2.53A17.78,17.78,0,0,1,349.17,155Z"/><path class="cls-2" d="M362.57,115.51a5.11,5.11,0,1,1,5.11,5.17A5.19,5.19,0,0,1,362.57,115.51Zm6.91,38.17h-3.6a2.11,2.11,0,0,1-2.41-2.4v-24a2.11,2.11,0,0,1,2.41-2.4h3.6a2.11,2.11,0,0,1,2.41,2.4v24A2.11,2.11,0,0,1,369.48,153.68Z"/><path class="cls-2" d="M402,154.88h-3.6a2.11,2.11,0,0,1-2.41-2.4V138.11c0-4.45-1.74-6.55-4.63-6.55-4,0-5.65,2.47-5.65,8.06v11.66a2.11,2.11,0,0,1-2.4,2.4H379.7a2.11,2.11,0,0,1-2.4-2.4V123.63a2.11,2.11,0,0,1,2.4-2.41h3.61a2.11,2.11,0,0,1,2.4,2.41v4.2a10,10,0,0,1,8.54-4.93,9.19,9.19,0,0,1,9.2,6.26,10.52,10.52,0,0,1,9.49-5.53c5.83,0,10.16,3.78,10.16,12.5v15.15a2.11,2.11,0,0,1-2.4,2.4h-3.61a2.11,2.11,0,0,1-2.4-2.4V138.83c0-4.44-1.75-6.55-4.63-6.55-4,0-5.65,2.47-5.65,8.06v12.14A2.11,2.11,0,0,1,402,154.88Z"/><path class="cls-2" d="M447.08,155.49a1.6,1.6,0,0,1-1.8-1.81V151.1a12.61,12.61,0,0,1-7.33,3.24,6.17,6.17,0,0,1-1,.06c-6.19,0-10.46-4.27-10.46-9.92,0-5.22,3.3-9.79,11.66-9.79a19.2,19.2,0,0,1,7.15,1.56c-.06-.42-.12-.78-.18-1.14-.66-2.89-2.82-4.39-6.07-4.39a14.07,14.07,0,0,0-7.09,2.28c-.91.54-1.63.06-2.23-1.08l-.84-1.74-.9-1.74c-.18-.37-.3-.67-.42-1a1.39,1.39,0,0,1,.66-1.56A19.62,19.62,0,0,1,440,122.3c8.42,0,13.71,5.23,13.71,13.77v17.61a2.59,2.59,0,0,1-.18,1,1.69,1.69,0,0,1-1.63.79Zm-2-11.37a2.35,2.35,0,0,0,.24-1.08v-.24a18.28,18.28,0,0,0-6.25-1.2c-2.77,0-4.15.9-4.15,2.64s1.93,2.65,4.15,2.65C441.5,146.89,444.26,145.93,445,144.12Z"/><path class="cls-2" d="M464.64,153.68H461a2.11,2.11,0,0,1-2.41-2.4V123a2.11,2.11,0,0,1,2.41-2.4h3.61A2.11,2.11,0,0,1,467,123v5c2-3.24,5-5.11,7.87-5.11a7.18,7.18,0,0,1,3.49.79,1.08,1.08,0,0,1,.54,1.14l-.6,6.91c-.06.9-.6,1.2-1.62,1a18,18,0,0,0-3.85-.48c-3.31,0-5.83,2.53-5.83,7.4v11.66A2.11,2.11,0,0,1,464.64,153.68Z"/><path class="cls-2" d="M480.8,138.65c0-9,5.71-15.75,15.09-15.75S511,129.64,511,138.65s-5.71,15.75-15.09,15.75S480.8,147.67,480.8,138.65Zm21.76,0c0-5.11-3-7-6.67-7s-6.67,1.92-6.67,7,3,7,6.67,7S502.56,143.76,502.56,138.65Z"/><path class="cls-2" d="M528.47,145.69A16.93,16.93,0,0,0,536,143.4c.91-.54,1.69-.06,2.23,1.08l1.68,3.79c.48,1,.72,1.74-.24,2.53a19,19,0,0,1-11.24,3.6c-9,0-14.91-6-14.91-15.33s5.89-15.44,14.91-15.44a19,19,0,0,1,11.24,3.6c1,.78.72,1.51.24,2.53l-1.68,3.78c-.54,1.15-1.32,1.63-2.23,1.09a16.8,16.8,0,0,0-7.51-2.29c-4.09,0-6.55,2.23-6.55,6.73S524.38,145.69,528.47,145.69Z"/><path class="cls-2" d="M542.54,149.23a5.14,5.14,0,1,1,5.1,5.17A5.18,5.18,0,0,1,542.54,149.23Z"/><path class="cls-2" d="M581.43,154.88h-3.61a2.11,2.11,0,0,1-2.41-2.4V138.11c0-4.45-1.74-6.55-4.62-6.55-4,0-5.65,2.47-5.65,8.06v11.66a2.11,2.11,0,0,1-2.41,2.4h-3.61a2.11,2.11,0,0,1-2.4-2.4V123.63a2.11,2.11,0,0,1,2.4-2.41h3.61a2.12,2.12,0,0,1,2.41,2.41v4.2a10,10,0,0,1,8.53-4.93,9.18,9.18,0,0,1,9.2,6.26,10.53,10.53,0,0,1,9.5-5.53c5.83,0,10.15,3.78,10.15,12.5v15.15a2.11,2.11,0,0,1-2.4,2.4h-3.61a2.11,2.11,0,0,1-2.4-2.4V138.83c0-4.44-1.74-6.55-4.63-6.55-4,0-5.65,2.47-5.65,8.06v12.14A2.11,2.11,0,0,1,581.43,154.88Z"/><path class="cls-2" d="M626.51,155.49a1.6,1.6,0,0,1-1.81-1.81V151.1a12.61,12.61,0,0,1-7.33,3.24,6.17,6.17,0,0,1-1,.06c-6.19,0-10.46-4.27-10.46-9.92,0-5.22,3.3-9.79,11.66-9.79a19.2,19.2,0,0,1,7.15,1.56c-.06-.42-.12-.78-.18-1.14-.66-2.89-2.82-4.39-6.07-4.39a14.07,14.07,0,0,0-7.09,2.28c-.9.54-1.62.06-2.23-1.08l-.84-1.74-.9-1.74c-.18-.37-.3-.67-.42-1a1.39,1.39,0,0,1,.66-1.56,19.65,19.65,0,0,1,11.78-3.61c8.42,0,13.71,5.23,13.71,13.77v17.61a2.59,2.59,0,0,1-.18,1,1.68,1.68,0,0,1-1.62.79Zm-2-11.37a2.35,2.35,0,0,0,.24-1.08v-.24a18.24,18.24,0,0,0-6.25-1.2c-2.76,0-4.15.9-4.15,2.64s1.93,2.65,4.15,2.65C620.92,146.89,623.68,145.93,624.46,144.12Z"/><g class="cls-4"><path d="M787.46,690.67c337.9,0,675.8-183.72,675.8-526.09s-337.9-526.22-675.8-526.22S111.53-177.92,111.53,164.58,449.43,690.67,787.46,690.67Z"/></g></svg>