<svg id="Calque_1" data-name="Calque 1" xmlns="http://www.w3.org/2000/svg" viewBox="0 0 1754.85 206.46"><title>GC__logo + slogan_black</title><path d="M499.08,205.05V146.78h10.79v58.27Z"/><path d="M548,205.05V183.47c0-6.06-1-14-8.82-14a9.08,9.08,0,0,0-7.17,3.85c-1.89,2.76-1.89,7.72-1.89,10.95v20.79H519.6V161.34h9.68v3.78c3.47-3.38,6.93-5.27,12-5.27a17.86,17.86,0,0,1,13.15,6.06c3.39,4.1,4,9.76,4,14.88v24.26Z"/><path d="M595.18,205.05V183.47c0-6.06-1-14-8.82-14a9.08,9.08,0,0,0-7.17,3.85c-1.89,2.76-1.89,7.72-1.89,10.95v20.79H566.83V161.34h9.69v3.78c3.46-3.38,6.93-5.27,12-5.27a17.88,17.88,0,0,1,13.15,6.06c3.38,4.1,4,9.76,4,14.88v24.26Z"/><path d="M634.74,206.46a23.31,23.31,0,1,1,0-46.61,23.1,23.1,0,0,1,23.15,23.23C657.89,196.31,648,206.46,634.74,206.46Zm0-37c-7.41,0-12.84,6.69-12.84,13.77,0,7.33,5.28,13.63,12.84,13.63,7.4,0,12.67-6.38,12.67-13.55C647.41,176.31,642.14,169.46,634.74,169.46Z"/><path d="M683.4,205.05h-8.19l-17.63-43.71h11.33l10.56,29h.23l9.92-29h11.5Z"/><path d="M737.41,205.05v-5.44c-3.46,4.1-9.92,6.85-15.27,6.85-13.15,0-21.26-11.1-21.26-23.54s9-23.07,21.89-23.07A19.31,19.31,0,0,1,735.68,165a12.22,12.22,0,0,1,1.58,1.82h.15v-5.52H747v43.71Zm-13.06-35.59c-7.8,0-13,6.45-13,13.93s5.51,13.47,13,13.47c7.79,0,12.75-6.3,12.75-13.78S732.06,169.46,724.35,169.46Z"/><path d="M768.05,170.64v34.41H757.58V170.64h-5.12v-9.3h5.12V146.78h10.47v14.56h6.3v9.3Z"/><path d="M779,156.38v-9.6h10.47v9.6Zm0,48.67V161.34h10.47v43.71Z"/><path d="M819,205.05h-8.19l-17.64-43.71h11.34l10.55,29h.24l9.92-29h11.5Z"/><path d="M881.64,187.88H847.7a8.68,8.68,0,0,0,1.42,3.15,12.64,12.64,0,0,0,10.62,5.83c4.26,0,8-1.73,10.08-5.59h11c-2.84,8.89-11.81,15.19-21.11,15.19a22.77,22.77,0,0,1-23.07-23.15c0-13.07,9.77-23.46,23-23.46a22.44,22.44,0,0,1,22.6,22.75A24.34,24.34,0,0,1,881.64,187.88Zm-21.9-18.42c-6.37,0-10.86,3.77-12.36,10h24.18C870.53,173.16,866.12,169.46,859.74,169.46Z"/><path d="M966.05,205.05V180.79c0-5.59-1.49-11.33-8.26-11.33a8.53,8.53,0,0,0-7.25,4.09c-1.49,2.44-1.57,6.14-1.57,8.9v22.6H938.49V180.79c0-5.74-2.12-11.33-8.74-11.33-7.87,0-8.34,7.87-8.34,13.77v21.82H910.93V161.34h9.61V165h.16c2.36-3.85,7.17-5.19,11.42-5.19a14.66,14.66,0,0,1,12.6,6.85c3.46-5,8.26-6.85,14.09-6.85,5.59,0,11,2.12,14.41,6.77,2.6,3.62,3.31,8.58,3.31,12.91v25.52Z"/><path d="M1027.78,187.88H993.84a8.85,8.85,0,0,0,1.42,3.15,12.66,12.66,0,0,0,10.63,5.83c4.25,0,8-1.73,10.08-5.59h11c-2.83,8.89-11.81,15.19-21.1,15.19a22.77,22.77,0,0,1-23.07-23.15c0-13.07,9.76-23.46,23-23.46a22.43,22.43,0,0,1,22.6,22.75A24.34,24.34,0,0,1,1027.78,187.88Zm-21.89-18.42c-6.38,0-10.87,3.77-12.36,10h24.17C1016.68,173.16,1012.27,169.46,1005.89,169.46Z"/><path d="M1069,205.05v-5.36h-.16c-2.91,4.65-8.58,6.77-13.94,6.77-12.75,0-22.28-10.78-22.28-23.23a23,23,0,0,1,13.7-21.49,21.33,21.33,0,0,1,8.58-1.89c5.36,0,9.53,1.42,13.23,5.35V146.78h10.47v58.27Zm-13-35.59c-7.08,0-12.91,6.45-12.91,13.38,0,7.25,5.28,14,12.91,14,7.41,0,12.92-6.54,12.92-13.7S1063.37,169.46,1056,169.46Z"/><path d="M1086.65,156.38v-9.6h10.47v9.6Zm0,48.67V161.34h10.47v43.71Z"/><path d="M1134.62,205.05v-4.41h-.16c-2.92,4-6.22,5.82-11.26,5.82-5.59,0-11.42-2.2-14.65-6.93-3-4.33-3.22-9.92-3.22-15V161.34h10.47v22.29c0,6.3,1.26,13.23,9.13,13.23,7.25,0,8.82-7.33,8.82-13.15V161.34h10.47v43.71Z"/><path d="M1208,205.05V180.79c0-5.59-1.49-11.33-8.26-11.33a8.53,8.53,0,0,0-7.25,4.09c-1.5,2.44-1.58,6.14-1.58,8.9v22.6H1180.4V180.79c0-5.74-2.12-11.33-8.74-11.33-7.87,0-8.34,7.87-8.34,13.77v21.82h-10.48V161.34h9.61V165h.16c2.36-3.85,7.16-5.19,11.41-5.19a14.63,14.63,0,0,1,12.6,6.85c3.47-5,8.27-6.85,14.1-6.85,5.59,0,11,2.12,14.41,6.77,2.6,3.62,3.31,8.58,3.31,12.91v25.52Z"/><path d="M1240.49,206.46c-4.88,0-10-1.89-13.07-5.74-2.29-2.92-3-5.83-3.31-9.45h10.71c.71,3.15,2.12,5.59,5.75,5.59a4.47,4.47,0,0,0,4.72-4.41,4,4,0,0,0-.63-2.29c-1.41-2-7-3.46-9.21-4.25-5.83-2-9.76-6.06-9.76-12.52,0-7.95,7-13.54,14.64-13.54a14,14,0,0,1,14.25,13.38h-10.23c-.48-2.28-1.81-3.77-4.18-3.77a3.83,3.83,0,0,0-4,3.77c0,2.29,1.81,2.92,3.62,3.63,1.26.47,2.52.86,3.78,1.26,6.77,2.12,12.2,5,12.2,13.07A15,15,0,0,1,1240.49,206.46Z"/><path d="M134.55,100.1C120.34,111.53,99.79,118.48,76,118.48c-22.55,0-42.63-6.79-56.69-18.53C6.64,89.44,0,75.39,0,59.17s6.8-30,19.46-40.48C33.68,7,53.91,0,76,0c29.2,0,51.44,9.27,65.19,26.57l-28.27,9.89C103.81,26.88,91,21.78,75.85,21.78c-29,0-49.13,16.07-49.13,37.39,0,11.74,5.41,21.16,16.38,28.42C51.44,93.15,63.18,96.7,76,96.7c22.71,0,41.09-9.73,48.51-23.48H70.29V51.6h84.34v6.48C154.63,75.08,147.83,89.29,134.55,100.1Z"/><path d="M181.08,115.24V3.4h27.19V93.77h86v21.47Z"/><path d="M439.91,100.1c-14.05,11.59-34,18.38-56.84,18.38-22.71,0-42.8-6.79-56.7-18.38-12.67-10.5-19.15-24.56-19.15-40.93,0-16.22,6.64-30.13,19.31-40.63C340.74,6.8,361,0,383.22,0c22.4,0,42.64,7,56.69,18.54C452.58,29,459.22,43,459.22,59.17,459.22,75.54,452.58,89.6,439.91,100.1ZM383.22,21.63c-29.2,0-48,15.45-48,37.54,0,22.55,18.38,37.69,47.89,37.69,29.66,0,48.19-15.14,48.19-37.69C431.26,37.08,412.57,21.63,383.22,21.63Z"/><path d="M628,83.11c0,18.54-16.06,32.13-42.33,32.13H488.24V3.4h94.38c12.67,0,24.57,5.1,32,13.28a27.94,27.94,0,0,1,7.57,19c0,9.27-3.55,15.92-11.43,21.48C621.86,63.34,628,71.52,628,83.11ZM594.67,35.68c0-6.33-4.94-10.81-12.2-10.81h-67V47h68.12A11.11,11.11,0,0,0,594.67,35.68Zm5.72,46c0-7.88-6.18-13.29-16.38-13.29H515.43V93.77h68.12C594.52,93.77,600.39,89.29,600.39,81.72Z"/><path d="M763.05,115.24l-12.83-24.1H678.54l-12.82,24.1H638.23L697.7,3.4h33.52l59.32,111.84ZM714.23,23.79,689.67,69.67h49.12Z"/><path d="M809.89,115.24V3.4h27.18V93.77h86v21.47Z"/><path d="M1109,41.86c-12.52-12.35-28.74-20.23-48.82-20.23-27.8,0-46.65,15.75-46.65,37.38,0,22.09,19.15,37.69,48.81,37.69,18.85,0,33.83-6.64,47-20.85l23,12.36c-18.53,21.16-39.54,30.12-68.74,30.12-19.77,0-36.45-4.48-52.52-14.37A52.6,52.6,0,0,1,986.46,59c0-16.06,6.64-30.12,19.31-40.63C1019.82,6.8,1039.91,0,1062.3,0c30.13,0,53.3,10.66,71.37,33.06Z"/><path d="M1284.93,100.1c-14.06,11.59-34,18.38-56.85,18.38-22.71,0-42.79-6.79-56.69-18.38-12.67-10.5-19.16-24.56-19.16-40.93,0-16.22,6.64-30.13,19.31-40.63C1185.75,6.8,1206,0,1228.23,0c22.4,0,42.64,7,56.7,18.54,12.66,10.5,19.31,24.41,19.31,40.63C1304.24,75.54,1297.59,89.6,1284.93,100.1Zm-56.7-78.47c-29.19,0-48,15.45-48,37.54,0,22.55,18.39,37.69,47.89,37.69,29.66,0,48.2-15.14,48.2-37.69C1276.28,37.08,1257.58,21.63,1228.23,21.63Z"/><path d="M1468,115.24V35.84h-.47L1414.2,100l-53.29-64.11h-.47v79.4h-27.19V3.4h31.83l49.12,59.32L1463.32,3.4h31.83V115.24Z"/><path d="M1665.17,115.24V35.84h-.46L1611.41,100l-53.29-64.11h-.47v79.4h-27.18V3.4h31.82l49.12,59.32L1660.53,3.4h31.83V115.24Z"/><path d="M1726.43,115.24V93.77h28.42v21.47Z"/></svg>