<svg id="Calque_1" data-name="Calque 1" xmlns="http://www.w3.org/2000/svg" viewBox="0 0 277.02 276.26"><defs><style>.cls-1{fill:#fff;}</style></defs><title>GC__LinkedIn</title><path class="cls-1" d="M256.31,0H20.72C9.21,0,0,9.21,0,20V256.31c0,10.74,9.21,19.95,20.72,19.95H256.31c11.51,0,20.71-9.21,20.71-19.95V20C277,9.21,267.82,0,256.31,0ZM82.11,235.59H41.44v-132H82.11ZM62.16,86A23.91,23.91,0,0,1,38.37,62.16,23.42,23.42,0,0,1,62.16,38.37a23.79,23.79,0,1,1,0,47.58ZM236.35,234.82H195.68V170.36c0-15.35,0-35.3-21.49-35.3s-24.55,16.88-24.55,33.76v65.23H109V103.6h38.37v17.65h.76c5.38-10.75,19.19-21.49,39.14-21.49,41.44,0,49.11,27.63,49.11,62.92Z"/></svg>