<svg id="Calque_1" data-name="Calque 1" xmlns="http://www.w3.org/2000/svg" xmlns:xlink="http://www.w3.org/1999/xlink" viewBox="0 0 685.69 157.68"><defs><style>.cls-1{fill:none;}.cls-2{fill:#0c0c0c;}.cls-3{clip-path:url(#clip-path);}</style><clipPath id="clip-path"><rect class="cls-1" x="-608.86" y="513.73" width="1351.73" height="760.35"/></clipPath></defs><title>GC__client2_light</title><path class="cls-2" d="M80.3,15.44,65.67,32C58,25,49.74,22.11,43.08,22.11c-7.32,0-12.68,3.57-12.68,9.43,0,4.06,3.09,7,11.21,10.89L61.45,52c14.46,7,21,17.39,21,30.56,0,21-17.07,34.46-39.51,34.46C27.63,117,13.17,110.7,0,95.91l16.91-16.1c9.26,9.92,17.23,14.63,25.84,14.63,8.13,0,15.93-4.22,15.93-11.37,0-5.53-4.22-8.94-11.7-12.52L27.47,61.12c-14.3-6.83-21-16.58-21-28.93C6.5,13.82,20.81,0,42.91,0A52.85,52.85,0,0,1,80.3,15.44Z"/><path class="cls-2" d="M180.6,72.66C180.6,98,161.09,117,134.92,117S89.24,98,89.24,72.66s19.51-44.38,45.68-44.38S180.6,47.3,180.6,72.66Zm-68.27,0c0,12.52,9.75,22,22.59,22s22.6-9.43,22.6-22-9.76-21.94-22.6-21.94S112.33,60.15,112.33,72.66Z"/><path class="cls-2" d="M194.26,1.63h22.92V115.41H194.26Z"/><path class="cls-2" d="M267.73,16.58c0,9.59-7.31,16.74-16.91,16.74s-17.06-7.15-17.06-16.74C233.76,7.15,241.07,0,250.82,0S267.73,7.15,267.73,16.58Zm-28.12,23.9h22.76v74.93H239.61Z"/><path class="cls-2" d="M274.88,101.76l14.8-16.58c8,7.31,16.25,10.4,23.08,10.4,5.53,0,8.61-2,8.61-5,0-2.76-2.43-5-8-7.31l-15.93-6.5c-12-4.88-17.07-12.52-17.07-22.27,0-14.63,11-26.18,30.4-26.18,12.35,0,24.22,4.72,32,12.36l-13.49,15.6c-6.67-5.52-13-7.31-18-7.31s-7.81,1.79-7.81,4.39,2.44,4.55,8,6.66l15,5.86c12.52,4.87,18,13,18,23.73,0,17.23-14.15,27.47-33.16,27.47C298,117,286.1,112,274.88,101.76Z"/><path class="cls-2" d="M355.37,1.63h22.76V29.91H404V52.34H378.13V84.2c0,7,4.39,10.41,10.73,10.41,5.52,0,9.59-2.44,15.11-7.32l13.82,17.07c-8.13,8.13-16.58,12.68-28.93,12.68-20.32,0-33.49-12-33.49-31.05Z"/><path class="cls-2" d="M510,29.91v85.5H487.2v-8.29c-6,6.83-14.46,9.92-23.73,9.92-23.73,0-41.78-19.18-41.78-44.54s18.05-44.22,41.94-44.22c8.46,0,17.07,2.44,23.57,9.76V29.91ZM487.2,84.53V60.47c-3.9-5.85-11.7-9.75-19.83-9.75-12.84,0-22.59,9.43-22.59,21.94s9.59,22,22.43,22C475.5,94.61,483.3,90.71,487.2,84.53Z"/><path class="cls-2" d="M551.9,84.55v30.86H529.14V29.91H551.9V41.13c7.48-8.78,20.16-13,32.84-13L584.9,51l-.95,0C566,51.6,551.9,66.61,551.9,84.55Z"/><path class="cls-2" d="M685.69,72.5c0,25.36-18.05,44.54-41.78,44.54-9.27,0-17.72-3.09-23.73-9.92v50.56H597.42V29.91h22.76V38c6.5-7.32,15.11-9.76,23.57-9.76C667.64,28.28,685.69,47.14,685.69,72.5Zm-23.09.16c0-12.51-9.75-21.94-22.59-21.94-8.13,0-15.93,3.9-19.83,9.75V84.53c3.9,6.18,11.7,10.08,20,10.08C653,94.61,662.6,85.18,662.6,72.66Z"/><path class="cls-2" d="M28.22,136.16v9.05a12.79,12.79,0,0,1-9.85,4.23c-6.78,0-12-4.85-12-11.16s5.27-11.23,12.05-11.23a12.27,12.27,0,0,1,9.14,3.86l-2.82,2.71a8,8,0,0,0-6.32-2.83c-4.58,0-8,3.2-8,7.49s3.4,7.43,8,7.43a8.68,8.68,0,0,0,6-2.24v-3.7H19.22v-3.61Z"/><path class="cls-2" d="M63.75,139.27v9.86H60V133.18h3.8v2.36a8.52,8.52,0,0,1,6.52-2.7l0,3.67C68.11,136.51,64.93,137.6,63.75,139.27Z"/><path class="cls-2" d="M121.86,141.14c0,4.76-3.8,8.3-8.91,8.3s-8.91-3.54-8.91-8.3,3.8-8.27,8.91-8.27S121.86,136.41,121.86,141.14Zm-14,0a5.09,5.09,0,1,0,5.08-4.73A4.83,4.83,0,0,0,107.87,141.14Z"/><path class="cls-2" d="M168.42,133.18v15.95h-3.8v-1.8a6.8,6.8,0,0,1-5.27,2.14c-3.9,0-6.22-2.48-6.22-6.84v-9.45h3.8v9.24c0,2.23,1.24,3.48,3.37,3.48a5.46,5.46,0,0,0,4.32-2V133.18Z"/><path class="cls-2" d="M217.18,141.11a8.16,8.16,0,0,1-8.32,8.33,6.57,6.57,0,0,1-5-2.05v9.83H200v-24h3.8v1.71a6.64,6.64,0,0,1,5-2A8.09,8.09,0,0,1,217.18,141.11Zm-3.87,0a4.8,4.8,0,0,0-5-4.73,5.35,5.35,0,0,0-4.45,2.18v5.07a5.26,5.26,0,0,0,4.45,2.24A4.8,4.8,0,0,0,213.31,141.14Z"/><g class="cls-3"><path d="M67,990.21c-337.91,0-675.81-183.72-675.81-526.09S-271-62.1,67-62.1,742.88,121.63,742.88,464.12,405,990.21,67,990.21Z"/></g></svg>