<svg id="Calque_1" data-name="Calque 1" xmlns="http://www.w3.org/2000/svg" xmlns:xlink="http://www.w3.org/1999/xlink" viewBox="0 0 781.78 157.68"><defs><style>.cls-1{fill:none;}.cls-2{fill:#fff;}.cls-3{clip-path:url(#clip-path);}</style><clipPath id="clip-path"><rect class="cls-1" x="-644.14" y="214.19" width="1351.73" height="760.35" transform="translate(63.45 1188.72) rotate(180)"/></clipPath></defs><title>GC__client5_dark</title><polygon class="cls-2" points="148.09 111.08 222.13 111.08 222.13 157.68 105.08 157.68 74.04 111.08 0 0 56.46 0 111.13 81.86 165.67 0 222.13 0 148.09 111.08"/><polygon class="cls-2" points="86.91 157.68 0 157.68 0 111.08 55.88 111.08 86.91 157.68"/><path class="cls-2" d="M278.14,134.43l-7.66,14.19V157h-3.34v-8.39l-7.67-14.22h4l5.35,10.68,5.36-10.68Z"/><path class="cls-2" d="M293.36,148.71c0,4.83-3.63,8.74-8.11,8.74s-8.11-3.91-8.11-8.74,3.63-8.74,8.11-8.74S293.36,143.89,293.36,148.71Zm-3.43,0c0-3.31-2.09-6-4.68-6s-4.69,2.69-4.69,6,2.1,6,4.69,6S289.93,152,289.93,148.71Z"/><path class="cls-2" d="M310.84,140.37V157h-3.43v-2.27a4.82,4.82,0,0,1-4.39,2.67,6.5,6.5,0,0,1-6.62-6.7V140.37h3.43v10.52a3.5,3.5,0,0,0,3.8,3.8,3.73,3.73,0,0,0,3.79-3.79V140.37Z"/><path class="cls-2" d="M326.69,140.18v3l-.6-.07c-4.82-.56-7.66,1.41-7.66,5.15v8.82H315V140.38h3.42v2.27C320.1,140.53,322.72,139.52,326.69,140.18Z"/><path class="cls-2" d="M351,137.17h-5.86v3.21H351v2.74h-5.86v13.93h-3.43V143.12H336.8v-2.74h4.86v-3.69a2.27,2.27,0,0,1,2.27-2.26h7Z"/><path class="cls-2" d="M367.71,140.37V157h-3.42v-2.27a4.84,4.84,0,0,1-4.4,2.67,6.5,6.5,0,0,1-6.62-6.7V140.37h3.43v10.52a3.5,3.5,0,0,0,3.79,3.8,3.74,3.74,0,0,0,3.8-3.79V140.37Z"/><path class="cls-2" d="M378.47,143.12v11.19h5.85v2.74h-6.54a2.46,2.46,0,0,1-2.74-2.74V143.12h-4.87v-2.74H375v-5.95h3.43v5.95h5.85v2.74Z"/><path class="cls-2" d="M401.33,140.37V157H397.9v-2.27a4.82,4.82,0,0,1-4.39,2.67,6.5,6.5,0,0,1-6.62-6.7V140.37h3.43v10.52a3.5,3.5,0,0,0,3.8,3.8,3.73,3.73,0,0,0,3.79-3.79V140.37Z"/><path class="cls-2" d="M417.18,140.18v3l-.6-.07c-4.82-.56-7.66,1.41-7.66,5.15v8.82H405.5V140.38h3.42v2.27C410.58,140.53,413.21,139.52,417.18,140.18Z"/><path class="cls-2" d="M434.65,149.24H421.89c.21,3.07,2.22,5.47,4.67,5.47a4.68,4.68,0,0,0,4.14-3.21h3.55a8.2,8.2,0,0,1-7.69,5.95c-4.48,0-8.12-3.91-8.12-8.74s3.64-8.74,8.12-8.74,8.11,3.92,8.11,8.74C434.67,148.89,434.66,149.07,434.65,149.24Zm-3.74-2.74c-.68-2.22-2.37-3.79-4.35-3.79s-3.68,1.57-4.36,3.79Z"/><path class="cls-2" d="M453.46,154.31h4.09v2.74H445.89v-2.74H450V143.12h-3.94v-2.74h4.62a2.46,2.46,0,0,1,2.75,2.74Zm-4-18.17c0-.95,1-1.71,2.3-1.71s2.31.76,2.31,1.71-1,1.71-2.31,1.71S449.42,137.09,449.42,136.14Z"/><path class="cls-2" d="M474.42,146.68v10.37H471V146.53a3.5,3.5,0,0,0-3.79-3.81,3.75,3.75,0,0,0-3.8,3.8v10.53H460V140.38h3.42v2.27a4.83,4.83,0,0,1,4.4-2.67A6.5,6.5,0,0,1,474.42,146.68Z"/><path class="cls-2" d="M502.78,148.71c0,4.83-3.63,8.74-8.12,8.74s-8.11-3.91-8.11-8.74,3.63-8.74,8.11-8.74S502.78,143.89,502.78,148.71Zm-3.43,0c0-3.31-2.1-6-4.69-6s-4.68,2.69-4.68,6,2.1,6,4.68,6S499.35,152,499.35,148.71Z"/><path class="cls-2" d="M520.26,140.37V157h-3.43v-2.27a4.83,4.83,0,0,1-4.39,2.67,6.5,6.5,0,0,1-6.62-6.7V140.37h3.42v10.52a3.5,3.5,0,0,0,3.8,3.8,3.73,3.73,0,0,0,3.79-3.79V140.37Z"/><path class="cls-2" d="M536.11,140.18v3l-.6-.07c-4.82-.56-7.66,1.41-7.66,5.15v8.82h-3.43V140.38h3.43v2.27C529.51,140.53,532.14,139.52,536.11,140.18Z"/><path class="cls-2" d="M564.21,148.74c-1,5.14-4.38,8.94-8.44,8.94-4.81,0-8.72-5.34-8.72-11.94s3.91-11.93,8.72-11.93c3.65,0,6.77,3.07,8.07,7.42h-3.45c-.91-2.79-2.64-4.68-4.62-4.68-2.93,0-5.3,4.11-5.3,9.19s2.37,9.2,5.3,9.2c2.32,0,4.3-2.59,5-6.2Z"/><path class="cls-2" d="M582.23,134.43v22.62h-5.4l-6-18.7v18.7h-3.42V134.43h5.21l6.15,19.14V134.43Z"/><path class="cls-2" d="M603,148.74c-1,5.14-4.38,8.94-8.44,8.94-4.82,0-8.72-5.34-8.72-11.94s3.9-11.93,8.72-11.93c3.65,0,6.77,3.07,8.07,7.42h-3.45c-.91-2.79-2.64-4.68-4.62-4.68-2.93,0-5.3,4.11-5.3,9.19s2.37,9.2,5.3,9.2c2.32,0,4.3-2.59,5-6.2Z"/><path class="cls-2" d="M630.64,149.24H617.87c.21,3.07,2.22,5.47,4.67,5.47a4.7,4.7,0,0,0,4.15-3.21h3.54a8.19,8.19,0,0,1-7.69,5.95c-4.48,0-8.11-3.91-8.11-8.74s3.63-8.74,8.11-8.74,8.11,3.92,8.11,8.74C630.65,148.89,630.65,149.07,630.64,149.24Zm-3.74-2.74c-.69-2.22-2.38-3.79-4.36-3.79s-3.67,1.57-4.36,3.79Z"/><path class="cls-2" d="M641.53,148.76l6.21,8.29h-4l-4.12-5.65-4.11,5.65h-4l6.2-8.29-6.27-8.38h4l4.18,5.75,4.19-5.75h4Z"/><path class="cls-2" d="M664.58,151.13a8.22,8.22,0,0,1-7.79,6.32c-4.48,0-8.12-3.91-8.12-8.74s3.64-8.74,8.12-8.74a8.21,8.21,0,0,1,7.72,6.06H661a4.73,4.73,0,0,0-4.19-3.32c-2.59,0-4.69,2.69-4.69,6s2.1,6,4.69,6c1.91,0,3.56-1.47,4.29-3.58Z"/><path class="cls-2" d="M683,149.24H670.26c.21,3.07,2.22,5.47,4.67,5.47a4.7,4.7,0,0,0,4.15-3.21h3.54a8.19,8.19,0,0,1-7.69,5.95c-4.48,0-8.11-3.91-8.11-8.74s3.63-8.74,8.11-8.74,8.11,3.92,8.11,8.74C683,148.89,683,149.07,683,149.24Zm-3.74-2.74c-.69-2.22-2.38-3.79-4.36-3.79s-3.67,1.57-4.36,3.79Z"/><path class="cls-2" d="M695.93,154.31v2.74H684.28v-2.74h4.13V137.17h-3.93v-2.74h4.62a2.46,2.46,0,0,1,2.74,2.74v17.14Z"/><path class="cls-2" d="M709.26,154.31v2.74H697.6v-2.74h4.13V137.17H697.8v-2.74h4.62a2.46,2.46,0,0,1,2.74,2.74v17.14Z"/><path class="cls-2" d="M726.73,149.24H714c.2,3.07,2.21,5.47,4.66,5.47a4.69,4.69,0,0,0,4.15-3.21h3.54a8.19,8.19,0,0,1-7.69,5.95c-4.48,0-8.11-3.91-8.11-8.74s3.63-8.74,8.11-8.74,8.11,3.92,8.11,8.74C726.74,148.89,726.74,149.07,726.73,149.24ZM723,146.5c-.69-2.22-2.38-3.79-4.36-3.79s-3.67,1.57-4.36,3.79Z"/><path class="cls-2" d="M744.37,146.68v10.37h-3.43V146.53a3.5,3.5,0,0,0-3.79-3.81,3.75,3.75,0,0,0-3.8,3.8v10.53h-3.42V140.38h3.42v2.27a4.83,4.83,0,0,1,4.4-2.67A6.5,6.5,0,0,1,744.37,146.68Z"/><path class="cls-2" d="M763.33,151.13a8.24,8.24,0,0,1-7.8,6.32c-4.48,0-8.11-3.91-8.11-8.74s3.63-8.74,8.11-8.74a8.21,8.21,0,0,1,7.72,6.06h-3.53a4.73,4.73,0,0,0-4.19-3.32c-2.59,0-4.69,2.69-4.69,6s2.1,6,4.69,6c1.91,0,3.56-1.47,4.29-3.58Z"/><path class="cls-2" d="M781.77,149.24H769c.21,3.07,2.22,5.47,4.67,5.47a4.69,4.69,0,0,0,4.15-3.21h3.54a8.19,8.19,0,0,1-7.69,5.95c-4.48,0-8.11-3.91-8.11-8.74s3.63-8.74,8.11-8.74,8.11,3.92,8.11,8.74C781.78,148.89,781.78,149.07,781.77,149.24ZM778,146.5c-.69-2.22-2.38-3.79-4.36-3.79s-3.67,1.57-4.36,3.79Z"/><path class="cls-2" d="M260.18,106.1l40.13-41.87a176.17,176.17,0,0,0,11.82-13.31,36.64,36.64,0,0,0,5.6-9.44,25.59,25.59,0,0,0,1.55-8.93v-.16A19.56,19.56,0,0,0,316.55,22,19.23,19.23,0,0,0,309,15a22.93,22.93,0,0,0-11-2.57,26.77,26.77,0,0,0-12.72,3,23.22,23.22,0,0,0-8.84,7.94,20,20,0,0,0-3.24,11.14v.39H259.47v-.47a31.29,31.29,0,0,1,5.14-17.66A35.75,35.75,0,0,1,278.47,4.46,41.88,41.88,0,0,1,297.79,0a39.32,39.32,0,0,1,18.4,4.19,32.53,32.53,0,0,1,12.68,11.37,29.14,29.14,0,0,1,4.63,16.12v.16a32.46,32.46,0,0,1-2.33,12.09,55.44,55.44,0,0,1-8.1,13.15,239.1,239.1,0,0,1-16.28,18l-31.28,32.08,4.19-8.77v8.77l-4.19-3.95h59.88V115.9H260.18Z"/><path class="cls-2" d="M369.49,17h-.31L339,38V23.7L369.33,1.9h13.91v114H369.49Z"/><path class="cls-2" d="M395.41,106.1l40.13-41.87a175.66,175.66,0,0,0,11.81-13.31A37,37,0,0,0,453,41.48a25.59,25.59,0,0,0,1.54-8.93v-.16A19.64,19.64,0,0,0,451.78,22,19.23,19.23,0,0,0,444.27,15a23,23,0,0,0-11-2.57,26.77,26.77,0,0,0-12.72,3,23.25,23.25,0,0,0-8.85,7.94,20,20,0,0,0-3.24,11.14v.39H394.7v-.47a31.36,31.36,0,0,1,5.13-17.66A35.85,35.85,0,0,1,413.7,4.46,41.84,41.84,0,0,1,433,0a39.36,39.36,0,0,1,18.41,4.19A32.6,32.6,0,0,1,464.1,15.56a29.21,29.21,0,0,1,4.62,16.12v.16a32.46,32.46,0,0,1-2.33,12.09,54.79,54.79,0,0,1-8.1,13.15,238.63,238.63,0,0,1-16.27,18l-31.29,32.08,4.19-8.77v8.77l-4.19-3.95h59.89V115.9H395.41Z"/><path class="cls-2" d="M502.42,110.52A48.06,48.06,0,0,1,484.29,90q-6.39-13.23-6.4-31.16v-.08q0-17.94,6.4-31.13A48.07,48.07,0,0,1,502.38,7.23Q514.08,0,530,0a50.68,50.68,0,0,1,21.56,4.5,44.91,44.91,0,0,1,16.24,12.56A42.69,42.69,0,0,1,576.41,36l.16.79H562.19L561.64,35A31.79,31.79,0,0,0,555,23.19a29.16,29.16,0,0,0-10.71-7.47A37.34,37.34,0,0,0,530,13.11a34.67,34.67,0,0,0-19.79,5.65,36.88,36.88,0,0,0-13,15.88q-4.62,10.23-4.62,24.14v.08q0,13.81,4.62,24.13A36.91,36.91,0,0,0,510.2,99,34.57,34.57,0,0,0,530,104.68a36.91,36.91,0,0,0,14.26-2.61A29.11,29.11,0,0,0,555,94.37a35.31,35.31,0,0,0,7-12.6l.24-.71h14.38l-.16.79a42.83,42.83,0,0,1-24.81,31.52A51.62,51.62,0,0,1,530,117.79Q514.15,117.79,502.42,110.52Z"/><path class="cls-2" d="M583.61,1.9h13.82l74.82,107.36-18-17.38h6.32V1.9h14.06v114H660.79L586,8.53l18,17.38h-6.32v90H583.61Z"/><path class="cls-2" d="M707.64,110.52A48,48,0,0,1,689.51,90q-6.4-13.23-6.4-31.16v-.08q0-17.94,6.4-31.13A47.94,47.94,0,0,1,707.6,7.23Q719.29,0,735.17,0a50.73,50.73,0,0,1,21.57,4.5A44.79,44.79,0,0,1,773,17.06,42.7,42.7,0,0,1,781.63,36l.15.79H767.4L766.85,35a31.63,31.63,0,0,0-6.59-11.81,29.32,29.32,0,0,0-10.71-7.47,37.39,37.39,0,0,0-14.38-2.61,34.72,34.72,0,0,0-19.79,5.65,36.86,36.86,0,0,0-13,15.88q-4.62,10.23-4.63,24.14v.08q0,13.81,4.63,24.13a36.84,36.84,0,0,0,13.07,16,34.56,34.56,0,0,0,19.75,5.69,36.88,36.88,0,0,0,14.26-2.61,29.14,29.14,0,0,0,10.79-7.7,35.47,35.47,0,0,0,6.95-12.6l.23-.71h14.38l-.15.79a42.89,42.89,0,0,1-24.81,31.52,51.66,51.66,0,0,1-21.65,4.42Q719.38,117.79,707.64,110.52Z"/><g class="cls-3"><path d="M31.79,690.67c337.9,0,675.8-183.72,675.8-526.09S369.69-361.64,31.79-361.64-644.14-177.92-644.14,164.58-306.24,690.67,31.79,690.67Z"/></g></svg>