<svg id="Calque_1" data-name="Calque 1" xmlns="http://www.w3.org/2000/svg" xmlns:xlink="http://www.w3.org/1999/xlink" viewBox="0 0 823.65 157.68"><defs><style>.cls-1{fill:none;}.cls-2{fill:#fff;}.cls-3{clip-path:url(#clip-path);}</style><clipPath id="clip-path"><rect class="cls-1" x="-19.85" y="214.19" width="1351.73" height="760.35" transform="translate(1312.03 1188.72) rotate(180)"/></clipPath></defs><title>GC__client6_dark</title><polygon class="cls-2" points="200.47 25.92 224.86 25.92 224.86 121.56 315.21 121.56 315.21 131.76 200.47 131.76 200.47 25.92"/><polygon class="cls-2" points="329.9 25.92 358.64 25.92 448.44 111.44 448.44 25.92 471.73 25.92 471.73 131.76 444.33 131.76 340.1 34.08 340.1 131.76 329.9 131.76 329.9 25.92"/><path class="cls-2" d="M549,25.92h27.54l65.36,105.84H615.16l-18.8-31.7H510.9l-19.52,31.7H481.17Zm40.46,62.47L554,32.43l-35.9,56Z"/><polygon class="cls-2" points="660.26 56.58 663.9 56.58 663.9 71.97 677.39 71.97 677.39 74.05 660.26 74.05 660.26 56.58"/><path class="cls-2" d="M680.66,56.58H684V59h-3.35Zm0,4.8H684V74.05h-3.35Z"/><path class="cls-2" d="M689,61.32h3.13v1.8a8.84,8.84,0,0,1,2.94-1.6,11.39,11.39,0,0,1,3.46-.49q4.17,0,5.64,1.89a4.78,4.78,0,0,1,.8,3v8.17h-3.35V66a3,3,0,0,0-.53-1.88A3.68,3.68,0,0,0,697.9,63a10.08,10.08,0,0,0-1.92.15,5.66,5.66,0,0,0-2.38,1,3.06,3.06,0,0,0-1.07,1.3,5.68,5.68,0,0,0-.25,1.92v6.67H689Z"/><path class="cls-2" d="M722.77,62a4.56,4.56,0,0,1,2.5,3.6h-3.2a3.41,3.41,0,0,0-1.33-2,5.7,5.7,0,0,0-3.36-.78,5.06,5.06,0,0,0-4.5,2,5.59,5.59,0,0,0-.87,3.19,4.48,4.48,0,0,0,1.24,3.22,5.17,5.17,0,0,0,3.92,1.31,5.71,5.71,0,0,0,3.24-.81,4.17,4.17,0,0,0,1.66-2.22h3.2a5.22,5.22,0,0,1-2.74,3.7,11.92,11.92,0,0,1-5.62,1.17,9.6,9.6,0,0,1-6.13-1.82A5.61,5.61,0,0,1,708.49,68,6.13,6.13,0,0,1,711,62.82,10.36,10.36,0,0,1,717.38,61a11.94,11.94,0,0,1,5.39,1Z"/><path class="cls-2" d="M742.76,62.59a5.33,5.33,0,0,1,2.6,4.82,6.47,6.47,0,0,1-2.29,5.09c-1.53,1.34-3.89,2-7.1,2a10.39,10.39,0,0,1-6.38-1.78A5.68,5.68,0,0,1,727.23,68a6.1,6.1,0,0,1,2.49-5.11A10.73,10.73,0,0,1,736.4,61a11.62,11.62,0,0,1,6.36,1.64Zm-2,8.46a5.83,5.83,0,0,0,1.2-3.58,4.56,4.56,0,0,0-.87-2.89c-.92-1.18-2.49-1.76-4.74-1.76A5.59,5.59,0,0,0,732,64.31a5.21,5.21,0,0,0-1.36,3.61A4.61,4.61,0,0,0,732,71.31a5.92,5.92,0,0,0,4.31,1.35c2.15,0,3.64-.53,4.44-1.61Z"/><rect class="cls-2" x="749.5" y="56.58" width="3.29" height="17.47"/><path class="cls-2" d="M757.73,61.32h3.13v1.8a9,9,0,0,1,2.94-1.6,11.39,11.39,0,0,1,3.46-.49q4.17,0,5.64,1.89a4.72,4.72,0,0,1,.8,3v8.17h-3.35V66a3,3,0,0,0-.53-1.88A3.68,3.68,0,0,0,766.64,63a10.08,10.08,0,0,0-1.92.15,5.71,5.71,0,0,0-2.38,1,3.06,3.06,0,0,0-1.07,1.3,5.94,5.94,0,0,0-.25,1.92v6.67h-3.29Z"/><path class="cls-2" d="M792,62.2a3.08,3.08,0,0,1-.57-1.68,3.24,3.24,0,0,1,1.75-2.8,8.67,8.67,0,0,1,4.68-1.11,7.89,7.89,0,0,1,4.37,1,3,3,0,0,1,1.57,2.47,3.68,3.68,0,0,1-1.63,2.94,15.31,15.31,0,0,1-3.17,1.7l4.89,3.81c.32-.63.55-1.11.67-1.42a8.43,8.43,0,0,0,.39-1.32h3.13A9.56,9.56,0,0,1,806.81,69c-.62,1-.93,1.44-.93,1.24l4.76,3.77h-4.23l-2.52-2a12,12,0,0,1-7.73,2.4c-2.78,0-4.81-.49-6.07-1.47a4.19,4.19,0,0,1-1.9-3.31A4,4,0,0,1,790,66.36a21.57,21.57,0,0,1,4.21-2A10.27,10.27,0,0,1,792,62.2ZM799.88,72a7.05,7.05,0,0,0,2.24-1.35l-6-4.82a19.18,19.18,0,0,0-3.34,1.71,2.63,2.63,0,0,0-1.21,2.18,2.33,2.33,0,0,0,1.56,2.14,7.58,7.58,0,0,0,3.32.75,8.92,8.92,0,0,0,3.48-.61Zm-.25-9.9a2.28,2.28,0,0,0,1.06-1.79,1.6,1.6,0,0,0-.78-1.33,3.59,3.59,0,0,0-2.11-.56,3.65,3.65,0,0,0-2.8.88,1.44,1.44,0,0,0-.4,1,2.05,2.05,0,0,0,.61,1.4,15.85,15.85,0,0,0,2,1.72,15.37,15.37,0,0,0,2.37-1.3Z"/><polygon class="cls-2" points="660.26 85.2 664.55 85.2 677.96 99.32 677.96 85.2 681.43 85.2 681.43 102.67 677.34 102.67 663.74 88.58 663.74 102.67 660.26 102.67 660.26 85.2"/><path class="cls-2" d="M699,90.29a7.39,7.39,0,0,1,3,1.64,4.79,4.79,0,0,1,1.31,2.25,9.61,9.61,0,0,1,.29,2.81H689.3a4.29,4.29,0,0,0,1.4,3.12,5.94,5.94,0,0,0,4,1.17,6.8,6.8,0,0,0,4.08-1.11A3.69,3.69,0,0,0,700,98.68h3.24a3.58,3.58,0,0,1-.85,1.56,6.64,6.64,0,0,1-1.61,1.41,9.52,9.52,0,0,1-3.69,1.29,17.81,17.81,0,0,1-2.67.19,10.72,10.72,0,0,1-6.17-1.73,5.57,5.57,0,0,1-2.52-4.85,6,6,0,0,1,2.54-5A10.79,10.79,0,0,1,695,89.65a12.71,12.71,0,0,1,4,.64Zm1.18,5a4.18,4.18,0,0,0-.93-2.22c-.89-1-2.39-1.55-4.48-1.55A6.4,6.4,0,0,0,691,92.58a3.43,3.43,0,0,0-1.62,2.71Z"/><polygon class="cls-2" points="709.25 89.94 713.02 99.97 716.84 89.94 720.54 89.94 724.38 99.92 728.39 89.94 731.68 89.94 725.99 102.67 722.57 102.67 718.59 92.81 714.72 102.67 711.3 102.67 705.65 89.94 709.25 89.94"/><path class="cls-2" d="M734.79,89.94H738v1.8a10.26,10.26,0,0,1,2.12-1.36,8.92,8.92,0,0,1,3.7-.73,8.12,8.12,0,0,1,3.77.75,4.92,4.92,0,0,1,1.47,1.26,7,7,0,0,1,2.57-1.52,10.79,10.79,0,0,1,3.33-.49q4,0,5.38,1.86a4.29,4.29,0,0,1,.77,2.68v8.48h-3.42V93.83a1.77,1.77,0,0,0-1-1.75,5.39,5.39,0,0,0-2.39-.48,6.31,6.31,0,0,0-3.34.85,3,3,0,0,0-1.4,2.81v7.41h-3.34V94.36a3,3,0,0,0-.48-1.89,3.52,3.52,0,0,0-2.8-.89,6.32,6.32,0,0,0-3.39.94,3.66,3.66,0,0,0-1.53,3.4v6.75h-3.29Z"/><path class="cls-2" d="M776.5,95a2,2,0,0,0,1.52-.61,1.32,1.32,0,0,0,.22-.83,1.66,1.66,0,0,0-1.2-1.59,9.24,9.24,0,0,0-3.42-.49,5.67,5.67,0,0,0-3.65.91,2.47,2.47,0,0,0-.79,1.49h-3.07a3.46,3.46,0,0,1,2.35-3.29,13.64,13.64,0,0,1,5.23-.92,15.4,15.4,0,0,1,5.61.85,2.84,2.84,0,0,1,2.14,2.67v7.34a.69.69,0,0,0,.21.53,1.33,1.33,0,0,0,.89.2,4.53,4.53,0,0,0,.5,0c.18,0,.37,0,.58,0v1.58a9.83,9.83,0,0,1-2.27.22,3.32,3.32,0,0,1-2.47-.79,2.38,2.38,0,0,1-.57-1.17,8.71,8.71,0,0,1-2.89,1.48,13,13,0,0,1-4.15.63,8.41,8.41,0,0,1-4.46-1.07,3.15,3.15,0,0,1-1.73-2.69,3,3,0,0,1,1.71-2.75,10.7,10.7,0,0,1,4.46-1.2Zm-6.93,5.79a5.29,5.29,0,0,0,2.47.53,10.94,10.94,0,0,0,3.37-.52c1.82-.58,2.74-1.52,2.74-2.84V96.2a7.24,7.24,0,0,1-1.55.42,17.8,17.8,0,0,1-1.86.23l-2,.17a11.41,11.41,0,0,0-2.69.49c-1,.37-1.53,1-1.53,1.78a1.62,1.62,0,0,0,1.05,1.46Z"/><path class="cls-2" d="M786.84,89.94H790v1.8a9,9,0,0,1,2.94-1.6,11.39,11.39,0,0,1,3.46-.49c2.79,0,4.66.63,5.64,1.89a4.72,4.72,0,0,1,.8,3v8.17h-3.35v-8a3,3,0,0,0-.53-1.88,3.71,3.71,0,0,0-3.18-1.19,10.08,10.08,0,0,0-1.92.15,5.71,5.71,0,0,0-2.38,1,3.11,3.11,0,0,0-1.07,1.3,5.94,5.94,0,0,0-.25,1.92v6.67h-3.29Z"/><path class="cls-2" d="M807.68,89.94h3.13v1.8a9,9,0,0,1,2.94-1.6,11.39,11.39,0,0,1,3.46-.49q4.17,0,5.64,1.89a4.72,4.72,0,0,1,.8,3v8.17H820.3v-8a3,3,0,0,0-.53-1.88,3.71,3.71,0,0,0-3.18-1.19,10.08,10.08,0,0,0-1.92.15,5.71,5.71,0,0,0-2.38,1,3.11,3.11,0,0,0-1.07,1.3A5.94,5.94,0,0,0,811,96v6.67h-3.29Z"/><path class="cls-2" d="M668.1,113.8h4.12L682,131.28h-4l-2.8-5.24H664.63l-2.91,5.24H658Zm6,10.32L670,116.4l-4.3,7.72Z"/><path class="cls-2" d="M686.78,127.28a2.4,2.4,0,0,0,.84,1.64c.84.69,2.31,1,4.4,1a9.72,9.72,0,0,0,3.29-.51c.94-.35,1.42-.88,1.42-1.6,0-.55-.38-1-1.14-1.25a18.3,18.3,0,0,0-2.86-.61l-2.66-.43a17.38,17.38,0,0,1-3.75-.9q-2.16-.87-2.16-2.4a3.33,3.33,0,0,1,2-2.93,11.39,11.39,0,0,1,5.46-1.11q4.49,0,6.47,1.68a3,3,0,0,1,1.21,2.31h-3.12a2,2,0,0,0-.8-1.31,7.17,7.17,0,0,0-4-.84,7,7,0,0,0-2.89.46c-.66.31-1,.71-1,1.22s.44,1,1.3,1.33a11.36,11.36,0,0,0,2.2.52l2.21.35a23.74,23.74,0,0,1,4.85,1.08,2.7,2.7,0,0,1,1.92,2.58,3.52,3.52,0,0,1-2,2.94,12,12,0,0,1-6.12,1.23q-4.43,0-6.27-1.29a4.17,4.17,0,0,1-2-3.19Z"/><path class="cls-2" d="M705.51,127.28a2.49,2.49,0,0,0,.84,1.64c.85.69,2.32,1,4.41,1a9.66,9.66,0,0,0,3.28-.51c1-.35,1.42-.88,1.42-1.6,0-.55-.37-1-1.13-1.25a18.58,18.58,0,0,0-2.86-.61l-2.66-.43a17.66,17.66,0,0,1-3.76-.9c-1.44-.58-2.15-1.38-2.15-2.4a3.32,3.32,0,0,1,2-2.93,11.46,11.46,0,0,1,5.47-1.11c3,0,5.14.56,6.47,1.68a3,3,0,0,1,1.2,2.31H715a2,2,0,0,0-.8-1.31,7.17,7.17,0,0,0-4-.84,7,7,0,0,0-2.89.46c-.66.31-1,.71-1,1.22s.43,1,1.29,1.33a11.36,11.36,0,0,0,2.2.52l2.22.35A23.74,23.74,0,0,1,716.8,125a2.7,2.7,0,0,1,1.92,2.58,3.52,3.52,0,0,1-2,2.94,12,12,0,0,1-6.12,1.23q-4.43,0-6.27-1.29a4.14,4.14,0,0,1-2-3.19Z"/><path class="cls-2" d="M736.49,119.81a5.35,5.35,0,0,1,2.6,4.82,6.5,6.5,0,0,1-2.29,5.09q-2.29,2-7.11,2a10.41,10.41,0,0,1-6.38-1.78,5.66,5.66,0,0,1-2.36-4.77,6.1,6.1,0,0,1,2.49-5.11,10.74,10.74,0,0,1,6.69-1.9,11.73,11.73,0,0,1,6.36,1.64Zm-2,8.46a5.83,5.83,0,0,0,1.2-3.58,4.62,4.62,0,0,0-.86-2.89c-.92-1.18-2.5-1.76-4.74-1.76a5.58,5.58,0,0,0-4.34,1.49,5.18,5.18,0,0,0-1.36,3.61,4.57,4.57,0,0,0,1.36,3.39,5.88,5.88,0,0,0,4.3,1.35c2.16,0,3.64-.53,4.44-1.61Z"/><path class="cls-2" d="M756.07,119.22a4.59,4.59,0,0,1,2.5,3.6h-3.2a3.41,3.41,0,0,0-1.33-2,5.7,5.7,0,0,0-3.36-.78,5.06,5.06,0,0,0-4.5,2,5.6,5.6,0,0,0-.87,3.2,4.51,4.51,0,0,0,1.24,3.22,5.21,5.21,0,0,0,3.92,1.3,5.71,5.71,0,0,0,3.24-.81,4.12,4.12,0,0,0,1.66-2.22h3.2a5.22,5.22,0,0,1-2.74,3.7,11.92,11.92,0,0,1-5.62,1.17,9.54,9.54,0,0,1-6.13-1.82,5.61,5.61,0,0,1-2.29-4.56A6.13,6.13,0,0,1,744.3,120a10.36,10.36,0,0,1,6.38-1.87,11.94,11.94,0,0,1,5.39,1Z"/><path class="cls-2" d="M761.86,113.8h3.35v2.43h-3.35Zm0,4.8h3.35v12.68h-3.35Z"/><path class="cls-2" d="M780.69,123.57a2,2,0,0,0,1.52-.62,1.3,1.3,0,0,0,.22-.83,1.66,1.66,0,0,0-1.2-1.59,9.28,9.28,0,0,0-3.42-.49,5.67,5.67,0,0,0-3.65.91,2.47,2.47,0,0,0-.79,1.49H770.3a3.46,3.46,0,0,1,2.35-3.29,13.84,13.84,0,0,1,5.23-.92,15.17,15.17,0,0,1,5.61.86,2.83,2.83,0,0,1,2.14,2.66v7.34a.69.69,0,0,0,.21.53,1.33,1.33,0,0,0,.89.2h.5l.58-.06v1.58a9.83,9.83,0,0,1-2.27.22,3.32,3.32,0,0,1-2.47-.79,2.43,2.43,0,0,1-.57-1.17,8.75,8.75,0,0,1-2.88,1.48,13.11,13.11,0,0,1-4.16.63,8.41,8.41,0,0,1-4.46-1.07,3.13,3.13,0,0,1-1.72-2.69,3,3,0,0,1,1.7-2.74,10.69,10.69,0,0,1,4.46-1.21Zm-6.93,5.78a5.29,5.29,0,0,0,2.47.53,10.83,10.83,0,0,0,3.36-.52c1.83-.57,2.75-1.52,2.75-2.84V124.8a7.24,7.24,0,0,1-1.55.42c-.63.11-1.26.19-1.87.24l-2,.16a11.41,11.41,0,0,0-2.69.49c-1,.37-1.52,1-1.52,1.78a1.61,1.61,0,0,0,1,1.46Z"/><path class="cls-2" d="M791.69,115H795v3.56h3.13v1.75H795v8.31a.88.88,0,0,0,.69.89,4.36,4.36,0,0,0,1.28.13h.52l.64,0v1.7a11.18,11.18,0,0,1-1.18.15c-.41,0-.85,0-1.33,0a4.7,4.7,0,0,1-3.13-.77,2.59,2.59,0,0,1-.82-2v-8.43H789v-1.75h2.66Z"/><path class="cls-2" d="M813.55,118.89a7.34,7.34,0,0,1,3,1.65,4.79,4.79,0,0,1,1.31,2.24,10,10,0,0,1,.29,2.81H803.86a4.26,4.26,0,0,0,1.39,3.12,6,6,0,0,0,4,1.17,6.81,6.81,0,0,0,4.09-1.11,3.62,3.62,0,0,0,1.21-1.49h3.24a3.58,3.58,0,0,1-.85,1.56,6.5,6.5,0,0,1-1.62,1.41,9.41,9.41,0,0,1-3.68,1.29,17.81,17.81,0,0,1-2.67.19,10.69,10.69,0,0,1-6.17-1.73,5.57,5.57,0,0,1-2.53-4.85,5.93,5.93,0,0,1,2.55-5,10.79,10.79,0,0,1,6.66-1.92,12.71,12.71,0,0,1,4,.64Zm1.17,5a4.18,4.18,0,0,0-.92-2.22q-1.35-1.55-4.48-1.55a6.47,6.47,0,0,0-3.77,1.06,3.45,3.45,0,0,0-1.62,2.71Z"/><path class="cls-2" d="M78.78,6.38a72.46,72.46,0,1,1-51.2,21.23A72.12,72.12,0,0,1,78.78,6.38Zm0-6.38A78.82,78.82,0,0,0,0,78.84a78.76,78.76,0,0,0,134.48,55.75,78.87,78.87,0,0,0,0-111.5A78.21,78.21,0,0,0,78.78,0Z"/><polygon class="cls-2" points="126.22 100.08 78.78 74.06 31.34 100.08 78.78 57.6 126.22 100.08"/><g class="cls-3"><path d="M656.08,690.67c337.9,0,675.8-183.72,675.8-526.09S994-361.64,656.08-361.64-19.85-177.92-19.85,164.58,318.05,690.67,656.08,690.67Z"/></g></svg>