<svg id="Calque_1" data-name="Calque 1" xmlns="http://www.w3.org/2000/svg" xmlns:xlink="http://www.w3.org/1999/xlink" viewBox="0 0 1351.73 760.35" style="opacity: 0.05;">
  <defs>
    <style>.cls-1{fill:none;}.cls-2{clip-path:url(#clip-path);}.cls-3{clip-path:url(#clip-path-2);}</style>
    <clipPath id="clip-path"><rect class="cls-1" y="-935.26" width="1351.73" height="760.35"/></clipPath>
    <clipPath id="clip-path-2"><rect class="cls-1" width="1351.73" height="760.35"/></clipPath>
  </defs>
  <title>GC__GC_pattern 6</title>
  <g class="cls-2"><path d="M1054.38,130.74c-208.84,0-417.68-113.55-417.68-325.15s208.84-325.23,417.68-325.23,417.76,113.55,417.76,325.23S1263.3,130.74,1054.38,130.74Z"/></g>
  <rect class="cls-1" width="1351.73" height="760.35"/>
  <g class="cls-3"><path d="M675.8,283.87C337.9,283.87,0,467.59,0,810s337.9,526.22,675.8,526.22S1351.73,1152.45,1351.73,810,1013.83,283.87,675.8,283.87Z"/><path d="M1054.38-305.65C845.54-305.65,636.7-192.09,636.7,19.5s208.84,325.23,417.68,325.23S1472.14,231.18,1472.14,19.5,1263.3-305.65,1054.38-305.65Z"/></g>
</svg>
