<svg id="Calque_1" data-name="Calque 1" xmlns="http://www.w3.org/2000/svg" xmlns:xlink="http://www.w3.org/1999/xlink" viewBox="0 0 1351.73 760.35"><defs><style>.cls-1{fill:none;}.cls-2{clip-path:url(#clip-path);}.cls-3{clip-path:url(#clip-path-2);}</style><clipPath id="clip-path"><rect class="cls-1" y="935.26" width="1351.73" height="760.35" transform="translate(1351.73 2630.86) rotate(180)"/></clipPath><clipPath id="clip-path-2"><rect class="cls-1" width="1351.73" height="760.35" transform="translate(1351.73 760.35) rotate(180)"/></clipPath></defs><title>GC__GC_pattern 4</title><g class="cls-2"><path d="M675.91,588.74c208.84,0,417.67,113.55,417.67,325.15s-208.83,325.23-417.67,325.23S258.15,1125.57,258.15,913.89,467,588.74,675.91,588.74Z"/></g><rect class="cls-1" width="1351.73" height="760.35" transform="translate(1351.73 760.35) rotate(180)"/><g class="cls-3"><path d="M675.93,476.48c337.9,0,675.8-183.72,675.8-526.09s-337.9-526.22-675.8-526.22S0-392.1,0-49.61,337.9,476.48,675.93,476.48Z"/><path d="M675.91,1106.86c208.84,0,417.67-113.55,417.67-325.15S884.75,456.48,675.91,456.48,258.15,570,258.15,781.71,467,1106.86,675.91,1106.86Z"/></g></svg>