<svg id="Calque_1" data-name="Calque 1" xmlns="http://www.w3.org/2000/svg" viewBox="0 0 1784.5 106.97"><defs><style>.cls-1{fill:#fff;}</style></defs><title>GC__Plan de travail 17</title><path class="cls-1" d="M76.7,63.18V43.79H178.93V63.18Z"/><path class="cls-1" d="M112,70.66a42.59,42.59,0,0,1-15.91,11.4,70.24,70.24,0,0,1-27.58,5.38c-26.65,0-43.24-13.66-43.24-34,0-19.94,17-33.9,43.37-33.9a67.93,67.93,0,0,1,27.54,5.55A43.26,43.26,0,0,1,112,36.47,42.85,42.85,0,0,1,127.81,25.1a48.86,48.86,0,0,0-8-8.35,65.22,65.22,0,0,0-7.8-5.51C100.11,4.12,85,0,68.6,0,48.52,0,30.25,6.15,17.43,16.75,6,26.23,0,38.79,0,53.42c0,14.79,5.83,27.48,17.27,37C29.84,100.85,48,107,68.47,107c16.69,0,31.6-4,43.43-11a68.2,68.2,0,0,0,7.89-5.54,49.66,49.66,0,0,0,8-8.32A42.93,42.93,0,0,1,112,70.66Z"/><path class="cls-1" d="M247.21,16.75C234.51,6.28,216.25,0,196,0c-16.3,0-31.41,4.06-43.36,11.24a63.25,63.25,0,0,0-7.83,5.51,48.76,48.76,0,0,0-8,8.32,43.26,43.26,0,0,1,15.89,11.4A42.8,42.8,0,0,1,168.47,25.1,68.4,68.4,0,0,1,196,19.52c26.52,0,43.37,14,43.37,33.9,0,20.36-16.72,34-43.5,34a69.49,69.49,0,0,1-27.41-5.38s0,0,0,0a42.93,42.93,0,0,1-15.82-11.4,42.51,42.51,0,0,1-15.91,11.4,48.12,48.12,0,0,0,8,8.32,64.56,64.56,0,0,0,7.86,5.54c11.76,7,26.77,11,43.33,11,20.62,0,38.63-6.12,51.33-16.59a46.5,46.5,0,0,0,17.43-37C264.64,38.79,258.65,26.23,247.21,16.75Z"/><path class="cls-1" d="M430.06,87.64C418.18,97.19,401,103,381.12,103c-18.86,0-35.64-5.69-47.39-15.5a43,43,0,0,1-16.15-34.09c0-13.43,5.69-25,16.27-33.83C345.74,9.77,362.65,4,381.12,4c24.4,0,43,7.75,54.49,22.21L412,34.44c-7.62-8-18.34-12.27-31-12.27-24.28,0-41.07,13.43-41.07,31.25,0,9.81,4.52,17.69,13.69,23.76,7,4.65,16.79,7.62,27.51,7.62,19,0,34.35-8.14,40.54-19.63H376.34V47.09h70.5v5.43C446.84,66.72,441.16,78.6,430.06,87.64Z"/><path class="cls-1" d="M469,100.29V6.8h22.72V82.35h71.93v17.94Z"/><path class="cls-1" d="M685.32,87.64C673.57,97.32,656.91,103,637.8,103S602,97.32,590.41,87.64a43,43,0,0,1-16-34.22c0-13.56,5.55-25.18,16.14-34C602.42,9.64,619.33,4,637.93,4s35.64,5.81,47.39,15.5c10.59,8.78,16.14,20.4,16.14,34A43.07,43.07,0,0,1,685.32,87.64ZM637.93,22C613.52,22,597.77,35,597.77,53.42c0,18.85,15.36,31.51,40,31.51s40.29-12.66,40.29-31.51C678.09,35,662.46,22,637.93,22Z"/><path class="cls-1" d="M842.58,73.43c0,15.5-13.43,26.86-35.38,26.86H725.71V6.8h78.9c10.59,0,20.54,4.27,26.73,11.11a23.34,23.34,0,0,1,6.33,15.88c0,7.75-3,13.3-9.55,18C837.42,56.91,842.58,63.75,842.58,73.43ZM814.69,33.79c0-5.29-4.14-9-10.2-9h-56V43.22h56.95A9.29,9.29,0,0,0,814.69,33.79Zm4.77,38.48c0-6.58-5.16-11.1-13.68-11.1H748.44V82.35h56.95C814.56,82.35,819.46,78.6,819.46,72.27Z"/><path class="cls-1" d="M955.43,100.29,944.72,80.15H884.8l-10.72,20.14h-23L900.81,6.8h28l49.59,93.49Zm-40.8-76.44L894.09,62.2h41.07Z"/><path class="cls-1" d="M994.59,100.29V6.8h22.72V82.35h71.93v17.94Z"/><path class="cls-1" d="M1244.59,39A56.56,56.56,0,0,0,1203.78,22c-23.24,0-39,13.17-39,31.25,0,18.47,16,31.51,40.8,31.51,15.75,0,28.28-5.55,39.26-17.43l19.24,10.33c-15.5,17.69-33.06,25.18-57.47,25.18-16.53,0-30.47-3.75-43.9-12a44,44,0,0,1-20.53-37.58c0-13.43,5.55-25.18,16.14-34C1170.08,9.64,1186.87,4,1205.59,4c25.18,0,44.55,8.91,59.66,27.64Z"/><path class="cls-1" d="M1391.69,87.64c-11.76,9.68-28.41,15.37-47.53,15.37s-35.77-5.69-47.39-15.37a43,43,0,0,1-16-34.22c0-13.56,5.55-25.18,16.14-34C1308.78,9.64,1325.7,4,1344.3,4s35.63,5.81,47.39,15.5c10.58,8.78,16.14,20.4,16.14,34A43.1,43.1,0,0,1,1391.69,87.64ZM1344.3,22c-24.41,0-40.16,12.91-40.16,31.38,0,18.85,15.36,31.51,40,31.51s40.29-12.66,40.29-31.51C1384.45,35,1368.83,22,1344.3,22Z"/><path class="cls-1" d="M1544.69,100.29V33.92h-.39l-44.55,53.59L1455.2,33.92h-.39v66.37h-22.73V6.8h26.61l41.06,49.59L1540.81,6.8h26.6v93.49Z"/><path class="cls-1" d="M1709.54,100.29V33.92h-.39L1664.6,87.51l-44.55-53.59h-.39v66.37h-22.72V6.8h26.6l41.06,49.59L1705.66,6.8h26.61v93.49Z"/><path class="cls-1" d="M1760.74,100.29V82.35h23.76v17.94Z"/></svg>