<svg id="Calque_1" data-name="Calque 1" xmlns="http://www.w3.org/2000/svg" viewBox="0 0 577.38 157.68"><defs><style>.cls-1{fill:#0c0c0c;}</style></defs><title>GC__client1_light</title><path class="cls-1" d="M126.22,49.61V82.38h-19V20.29A12.94,12.94,0,0,1,111,10.91a27.56,27.56,0,0,1,9.19-6.15,49.73,49.73,0,0,1,11.72-3.32,71.67,71.67,0,0,1,11.31-1h18.61V15.72q-9.89,0-16.67.45a77.83,77.83,0,0,0-11,1.32,15,15,0,0,0-6.08,2.38,4.47,4.47,0,0,0-1.87,3.61V34.21h77v15.4Z"/><path class="cls-1" d="M251.31,82.38Q213,82.38,213,60.54V21.05a15.69,15.69,0,0,1,2.48-8.7,20.08,20.08,0,0,1,7.17-6.48,39.54,39.54,0,0,1,11.38-4,74.2,74.2,0,0,1,15-1.38h60.68V15.72H247.07Q232,15.72,232,21.15V60.23Q232,67,251.31,67h58.44V82.38Z"/><path class="cls-1" d="M441.8,82.38V29.12L401.31,78.06a13.36,13.36,0,0,1-4.93,3.81,14.31,14.31,0,0,1-6,1.28,13.83,13.83,0,0,1-11.18-5.09L338.14,28.67V82.38h-19V9A8.11,8.11,0,0,1,322,2.38,10.93,10.93,0,0,1,329.3,0q6.61,0,10.38,4.2L390.5,62.89,440.24,4.31q3.54-4.3,10-4.31a10.87,10.87,0,0,1,7.6,2.65,9.1,9.1,0,0,1,2.88,7V82.38Z"/><path class="cls-1" d="M577.38,59.65a17.49,17.49,0,0,1-2.65,9.53,22.32,22.32,0,0,1-7.37,7.14,37.64,37.64,0,0,1-11.24,4.51,62.77,62.77,0,0,1-14.31,1.55H471.49V.44H542Q558.89.44,568.12,6t9.26,16ZM558.65,22a3.29,3.29,0,0,0-1.35-2.49,11.58,11.58,0,0,0-3.65-2,29,29,0,0,0-5.35-1.33,40,40,0,0,0-6.59-.5H490.44V67h51a33.19,33.19,0,0,0,12.34-1.94c3.22-1.3,4.83-3.08,4.83-5.38Z"/><path class="cls-1" d="M38.29,82.38Q0,82.38,0,60.53V21.05a15.74,15.74,0,0,1,2.47-8.71A20.34,20.34,0,0,1,9.66,5.86,39.36,39.36,0,0,1,21,1.82,73.49,73.49,0,0,1,36,.44H96.71V15.72H34Q19,15.72,19,21.15V60.22Q19,67,38.29,67H96.71v15.4Z"/><rect class="cls-1" x="15.61" y="33.66" width="81.1" height="15.84"/><path class="cls-1" d="M21.16,122.07H15.92L27.61,94.53H33.1L45,122.07H39.55l-3.14-7.51H27.26L29,110.13h5.55L30.23,99.79Z"/><path class="cls-1" d="M66.38,101.85v20.22h-4l-.62-2.58a12.22,12.22,0,0,1-7.4,2.58q-6.19,0-6.2-7.34V101.85h5.11V114.6q0,3.34,2.92,3.35a8.36,8.36,0,0,0,5.07-2V101.84h5.11Z"/><path class="cls-1" d="M80.33,120.92v-4.63a26.69,26.69,0,0,0,9.37,1.55c4.22,0,6.33-1.42,6.33-4.24,0-2.06-1.29-3.08-3.89-3.08H87.83q-8.46,0-8.46-7.71,0-8.48,12-8.48a28.14,28.14,0,0,1,8.77,1.35v4.63a24.91,24.91,0,0,0-8.77-1.55q-6.93,0-6.93,4c0,2,1.11,3.08,3.35,3.08h4.31q9,0,9,7.71,0,8.67-11.44,8.67A30.24,30.24,0,0,1,80.33,120.92Z"/><path class="cls-1" d="M113.76,101.85q9.21,0,9.21,9.4a19.09,19.09,0,0,1-.17,2.5H109.37q0,4.27,6.28,4.28a32.62,32.62,0,0,0,6.13-.58v4a31.86,31.86,0,0,1-6.51.57q-11,0-11-10.34Q104.27,101.85,113.76,101.85Zm-4.39,8.36H118v-.16q0-4.2-4.24-4.2C111.07,105.85,109.6,107.3,109.37,110.21Z"/><path class="cls-1" d="M127,122.07V101.85h4l.64,2.58a8,8,0,0,1,5.62-2.58V106a6.87,6.87,0,0,0-5.1,2.37v13.73Z"/><path class="cls-1" d="M138,101.85h5.4L148.28,116l5.1-14.14h5.4l-8.23,20.22H145.7Z"/><path class="cls-1" d="M166.53,94.53v4h-5.11v-4Zm0,7.32v20.22h-5.11V101.85Z"/><path class="cls-1" d="M186.51,121.5a23.35,23.35,0,0,1-5.2.57q-10.78,0-10.79-10.49,0-9.73,10.79-9.73a22.77,22.77,0,0,1,5.2.58v4a21.7,21.7,0,0,0-4.82-.58q-6.06,0-6.06,5.69,0,6.45,6.06,6.45a21.13,21.13,0,0,0,4.82-.58Z"/><path class="cls-1" d="M198.65,101.85q9.21,0,9.21,9.4a19.09,19.09,0,0,1-.17,2.5H194.26q0,4.27,6.28,4.28a32.62,32.62,0,0,0,6.13-.58v4a31.86,31.86,0,0,1-6.51.57q-11,0-11-10.34Q189.17,101.85,198.65,101.85Zm-4.39,8.36h8.63v-.16q0-4.2-4.24-4.2C196,105.85,194.49,107.3,194.26,110.21Z"/><path class="cls-1" d="M238.75,120.86a35.71,35.71,0,0,1-9.07,1.21q-9.81,0-9.81-10.51,0-9.72,9.6-9.71a10.18,10.18,0,0,1,4.18,1V94.53h5.11v26.33Zm-5.1-13.73a7,7,0,0,0-4-1q-4.76,0-4.76,5.34,0,6.35,5,6.34a12.57,12.57,0,0,0,3.78-.56V107.13Z"/><path class="cls-1" d="M252.34,101.85q9.21,0,9.21,9.4a19.09,19.09,0,0,1-.17,2.5H248q0,4.27,6.28,4.28a32.7,32.7,0,0,0,6.13-.58v4a31.9,31.9,0,0,1-6.52.57q-11,0-11-10.34Q242.84,101.85,252.34,101.85ZM248,110.21h8.63v-.16q0-4.2-4.24-4.2C249.65,105.85,248.18,107.3,248,110.21Z"/><path class="cls-1" d="M279.63,94.53v27.54h-5.1V94.53Z"/><path class="cls-1" d="M290.85,94.53,288,102.91h-4.72l2.89-8.38Z"/><path class="cls-1" d="M313.8,94.53v4.39H300v6.93h13.13v4.57H300v7.22h14.12v4.43H294.94V94.52H313.8Z"/><path class="cls-1" d="M318.54,122.07V101.85h3.95l.64,3a9.07,9.07,0,0,1,6.63-3q7.19,0,7.18,7.47v12.75h-5.1V109.32q0-3.34-3.34-3.35a7.53,7.53,0,0,0-4.85,2v14.12Z"/><path class="cls-1" d="M342,121.11v-4.24a20.79,20.79,0,0,0,7.78,1.35c2.19,0,3.29-.7,3.29-2.12s-.74-2-2.21-2H347.2q-6.17,0-6.17-6.07,0-6.36,9-6.36a22,22,0,0,1,7.18,1.16v4.24a19.45,19.45,0,0,0-7.32-1.35q-4.14,0-4.14,2.12c0,1.35.81,2,2.41,2h3.28q6.74,0,6.74,6.07,0,6.36-8.59,6.36A23.27,23.27,0,0,1,342,121.11Z"/><path class="cls-1" d="M370.51,101.85q9.21,0,9.21,9.4a19.09,19.09,0,0,1-.17,2.5H366.12q0,4.27,6.28,4.28a32.52,32.52,0,0,0,6.12-.58v4a31.73,31.73,0,0,1-6.51.57q-11,0-11-10.34Q361,101.85,370.51,101.85Zm-4.39,8.36h8.63v-.16q0-4.2-4.24-4.2C367.82,105.85,366.35,107.3,366.12,110.21Z"/><path class="cls-1" d="M388.9,94.53v4h-5.11v-4Zm0,7.32v20.22h-5.11V101.85Z"/><path class="cls-1" d="M412,120.53q0,8.86-10.65,8.86a21,21,0,0,1-6.63-1v-4a21.52,21.52,0,0,0,6.67,1q5.5,0,5.51-4.62a12.48,12.48,0,0,1-4.9,1q-9,0-9-9.85t10.5-10a53.38,53.38,0,0,1,8.51.82v17.86Zm-5.11-14.1a10.65,10.65,0,0,0-3.56-.46c-3.53,0-5.3,1.94-5.3,5.84s1.53,5.64,4.57,5.64a9.58,9.58,0,0,0,4.29-1v-10Z"/><path class="cls-1" d="M417.05,122.07V101.85H421l.64,3a9.07,9.07,0,0,1,6.63-3q7.19,0,7.18,7.47v12.75h-5.1V109.32c0-2.23-1.12-3.35-3.34-3.35a7.53,7.53,0,0,0-4.85,2v14.12Z"/><path class="cls-1" d="M449,101.85q9.21,0,9.21,9.4a17.52,17.52,0,0,1-.18,2.5H444.65q0,4.27,6.28,4.28a32.52,32.52,0,0,0,6.12-.58v4a31.73,31.73,0,0,1-6.51.57q-11,0-11-10.34Q439.54,101.85,449,101.85Zm-4.39,8.36h8.63v-.16c0-2.8-1.42-4.2-4.24-4.2S444.88,107.3,444.65,110.21Z"/><path class="cls-1" d="M462.32,122.07V101.85h3.95l.59,2.92a8.61,8.61,0,0,1,6.53-2.92q3.83,0,5.23,2.77a9.63,9.63,0,0,1,6.49-2.77q7,0,7,7.68v12.54H487V109.34q0-3.37-3.05-3.37a6.27,6.27,0,0,0-4.37,2v14.06h-5.11V109.4c0-2.29-.93-3.43-2.81-3.43a5.86,5.86,0,0,0-4.22,2v14.06Z"/><path class="cls-1" d="M505.67,101.85q9.21,0,9.21,9.4a17.52,17.52,0,0,1-.18,2.5H501.27c0,2.85,2.1,4.28,6.28,4.28a32.54,32.54,0,0,0,6.13-.58v4a31.8,31.8,0,0,1-6.51.57q-11,0-11-10.34Q496.17,101.85,505.67,101.85Zm-4.39,8.36h8.63v-.16c0-2.8-1.42-4.2-4.24-4.2S501.51,107.3,501.28,110.21Z"/><path class="cls-1" d="M519,122.07V101.85h3.95l.63,3a9.07,9.07,0,0,1,6.63-3q7.19,0,7.18,7.47v12.75h-5.1V109.32q0-3.34-3.33-3.35a7.54,7.54,0,0,0-4.86,2v14.12Z"/><path class="cls-1" d="M542.11,98.57h3.78l.77,3.28h5.08v4h-4.52v9.31c0,1.88.81,2.83,2.44,2.83h2.08v4h-4.55c-3.39,0-5.08-1.81-5.08-5.45V98.57Z"/><path class="cls-1" d="M135.94,137.45q9.21,0,9.21,9.4a19.24,19.24,0,0,1-.17,2.51H131.55c0,2.85,2.1,4.27,6.28,4.27a33.46,33.46,0,0,0,6.13-.57v4a31.1,31.1,0,0,1-6.51.58q-11,0-11-10.35Q126.45,137.45,135.94,137.45Zm-4.39,8.36h8.63v-.15q0-4.2-4.24-4.2C133.25,141.46,131.78,142.91,131.55,145.81Z"/><path class="cls-1" d="M148.93,134.18h3.78l.77,3.27h5.09v4.05H154v9.3c0,1.89.82,2.83,2.45,2.83h2.08v4.05H154q-5.09,0-5.09-5.45v-18Z"/><path class="cls-1" d="M189.09,156.46a35.29,35.29,0,0,1-9.07,1.22q-9.81,0-9.81-10.52,0-9.71,9.6-9.71a10.18,10.18,0,0,1,4.18,1v-8.28h5.1v26.33ZM184,142.73a7.13,7.13,0,0,0-4-1q-4.76,0-4.76,5.34,0,6.33,5,6.33a12.56,12.56,0,0,0,3.78-.55V142.73Z"/><path class="cls-1" d="M202.68,137.45q9.21,0,9.21,9.4a17.66,17.66,0,0,1-.18,2.51H198.29q0,4.27,6.28,4.27a33.35,33.35,0,0,0,6.12-.57v4a31,31,0,0,1-6.51.58q-11,0-11-10.35Q193.18,137.45,202.68,137.45Zm-4.39,8.36h8.63v-.15q0-4.2-4.24-4.2Q198.63,141.46,198.29,145.81Z"/><path class="cls-1" d="M230,130.13v27.55h-5.11V130.13Z"/><path class="cls-1" d="M234.06,151.38q0-6,8.78-6a23.08,23.08,0,0,1,4.13.38v-1.52c0-1.81-1.31-2.71-3.91-2.71a32.08,32.08,0,0,0-7.36,1v-4.05a32.15,32.15,0,0,1,7.36-1q9,0,9,6.67v13.56h-3l-1.82-1.81a10,10,0,0,1-5.81,1.81Q234.06,157.68,234.06,151.38Zm8.78-2.56q-3.68,0-3.68,2.5,0,2.7,3.09,2.7a7.9,7.9,0,0,0,4.72-1.58V149.2A21.63,21.63,0,0,0,242.84,148.82Z"/><path class="cls-1" d="M266.51,157.64V130.13H279q8.45,0,8.44,7.38,0,5-6.57,8.26l8.73,11.91H283.2l-8.38-12v-2.33q7.32-1.26,7.32-5.69c0-2-1.15-3-3.43-3h-7v23Z"/><path class="cls-1" d="M300.33,137.45q9.21,0,9.21,9.4a17.66,17.66,0,0,1-.18,2.51H295.94q0,4.27,6.28,4.27a33.35,33.35,0,0,0,6.12-.57v4a31,31,0,0,1-6.51.58q-11,0-11-10.35Q290.83,137.45,300.33,137.45Zm-4.39,8.36h8.63v-.15c0-2.8-1.42-4.2-4.24-4.2S296.17,142.91,295.94,145.81Z"/><path class="cls-1" d="M328.54,157.1a22.84,22.84,0,0,1-5.2.58q-10.8,0-10.79-10.5,0-9.74,10.79-9.73a22.84,22.84,0,0,1,5.2.58v4.05a21.19,21.19,0,0,0-4.82-.58c-4,0-6.07,1.89-6.07,5.68q0,6.45,6.07,6.45a21.74,21.74,0,0,0,4.82-.57Z"/><path class="cls-1" d="M332.15,157.68V130.13h5.1V140a8,8,0,0,1,6.11-2.58q7.18,0,7.18,7.48v12.75h-5.1V144.93q0-3.36-3.33-3.36a7.55,7.55,0,0,0-4.86,2v14.12Z"/><path class="cls-1" d="M364.13,137.45q9.21,0,9.21,9.4a19.24,19.24,0,0,1-.17,2.51H359.74q0,4.27,6.28,4.27a33.35,33.35,0,0,0,6.12-.57v4a31,31,0,0,1-6.51.58q-11,0-11-10.35Q354.63,137.45,364.13,137.45Zm-4.39,8.36h8.63v-.15q0-4.2-4.24-4.2Q360.08,141.46,359.74,145.81Z"/><path class="cls-1" d="M377.41,157.68V137.45h3.95L382,140a8,8,0,0,1,5.63-2.58v4.12a6.91,6.91,0,0,0-5.11,2.37v13.74Z"/><path class="cls-1" d="M405.68,157.1a22.84,22.84,0,0,1-5.2.58q-10.8,0-10.79-10.5,0-9.74,10.79-9.73a22.84,22.84,0,0,1,5.2.58v4.05a21.19,21.19,0,0,0-4.82-.58q-6.08,0-6.07,5.68,0,6.45,6.07,6.45a21.74,21.74,0,0,0,4.82-.57Z"/><path class="cls-1" d="M409.28,157.68V130.13h5.11V140a8,8,0,0,1,6.11-2.58q7.19,0,7.18,7.48v12.75h-5.1V144.93q0-3.36-3.34-3.36a7.55,7.55,0,0,0-4.85,2v14.12Z"/><path class="cls-1" d="M441.27,137.45q9.21,0,9.21,9.4a17.66,17.66,0,0,1-.18,2.51H436.88q0,4.27,6.28,4.27a33.35,33.35,0,0,0,6.12-.57v4a31,31,0,0,1-6.51.58q-11,0-11-10.35Q431.77,137.45,441.27,137.45Zm-4.39,8.36h8.63v-.15c0-2.8-1.42-4.2-4.24-4.2S437.11,142.91,436.88,145.81Z"/></svg>