<svg id="Calque_1" data-name="Calque 1" xmlns="http://www.w3.org/2000/svg" xmlns:xlink="http://www.w3.org/1999/xlink" viewBox="0 0 1754.85 382.68"><defs><style>.cls-1{fill:none;}.cls-2{clip-path:url(#clip-path);}.cls-3{clip-path:url(#clip-path-2);}.cls-4{fill:#fff;}</style><clipPath id="clip-path"><rect class="cls-1" x="-74.27" y="-1167.28" width="1351.73" height="760.35"/></clipPath><clipPath id="clip-path-2"><rect class="cls-1" x="1452.36" y="-1167.28" width="1351.73" height="760.35" transform="translate(4256.46 -1574.2) rotate(180)"/></clipPath></defs><title>GC__main logo white</title><g class="cls-2"><path d="M601.53-883.41c-337.9,0-675.8,183.72-675.8,526.09S263.63,168.9,601.53,168.9s675.93-183.72,675.93-526.22S939.56-883.41,601.53-883.41Z"/></g><g class="cls-3"><path d="M2128.3-883.41c337.9,0,675.8,183.72,675.8,526.09S2466.2,168.9,2128.3,168.9,1452.36-14.82,1452.36-357.32,1790.26-883.41,2128.3-883.41Z"/></g><path class="cls-4" d="M816.5,69.73V48.33H929.35v21.4Z"/><path class="cls-4" d="M855.43,78a47,47,0,0,1-17.57,12.59,77.64,77.64,0,0,1-30.44,5.93C778,96.51,759.7,81.44,759.7,59c0-22,18.77-37.41,47.86-37.41A75.07,75.07,0,0,1,838,27.67,47.77,47.77,0,0,1,855.5,40.26,47.24,47.24,0,0,1,872.93,27.7a54.47,54.47,0,0,0-8.86-9.21,72.58,72.58,0,0,0-8.61-6.08C842.34,4.55,825.66,0,807.56,0c-22.15,0-42.32,6.79-56.47,18.49C738.47,29,731.85,42.82,731.85,59c0,16.32,6.44,30.34,19.06,40.79,13.87,11.56,33.89,18.32,56.51,18.32,18.42,0,34.89-4.41,47.94-12.2a72.9,72.9,0,0,0,8.71-6.12,55.17,55.17,0,0,0,8.82-9.17A47.28,47.28,0,0,1,855.43,78Z"/><path class="cls-4" d="M1004.71,18.49C990.69,6.93,970.53,0,948.2,0c-18,0-34.67,4.48-47.87,12.41a70.56,70.56,0,0,0-8.64,6.08,53.87,53.87,0,0,0-8.85,9.18,47.86,47.86,0,0,1,17.53,12.59A47.28,47.28,0,0,1,917.79,27.7a75.73,75.73,0,0,1,30.41-6.15c29.27,0,47.86,15.4,47.86,37.41,0,22.48-18.45,37.55-48,37.55a76.93,76.93,0,0,1-30.27-5.93s0,0,0,0A47.28,47.28,0,0,1,900.3,78a47.1,47.1,0,0,1-17.57,12.59,53.6,53.6,0,0,0,8.82,9.17,69.46,69.46,0,0,0,8.68,6.12c13,7.79,29.55,12.2,47.83,12.2,22.76,0,42.63-6.76,56.65-18.32A51.32,51.32,0,0,0,1024,59C1024,42.82,1017.33,29,1004.71,18.49Z"/><path class="cls-4" d="M499.08,381.26V323h10.79v58.27Z"/><path class="cls-4" d="M548,381.26V359.68c0-6.06-1-14-8.82-14a9.08,9.08,0,0,0-7.17,3.85c-1.89,2.76-1.89,7.72-1.89,11v20.79H519.6v-43.7h9.68v3.78c3.47-3.39,6.93-5.28,12-5.28a17.86,17.86,0,0,1,13.15,6.06c3.39,4.1,4,9.77,4,14.89v24.25Z"/><path class="cls-4" d="M595.18,381.26V359.68c0-6.06-1-14-8.82-14a9.08,9.08,0,0,0-7.17,3.85c-1.89,2.76-1.89,7.72-1.89,11v20.79H566.83v-43.7h9.69v3.78c3.46-3.39,6.93-5.28,12-5.28a17.88,17.88,0,0,1,13.15,6.06c3.38,4.1,4,9.77,4,14.89v24.25Z"/><path class="cls-4" d="M634.74,382.68a23.31,23.31,0,1,1,0-46.62,23.1,23.1,0,0,1,23.15,23.23C657.89,372.52,648,382.68,634.74,382.68Zm0-37c-7.41,0-12.84,6.69-12.84,13.78,0,7.32,5.28,13.62,12.84,13.62,7.4,0,12.67-6.38,12.67-13.54C647.41,352.52,642.14,345.67,634.74,345.67Z"/><path class="cls-4" d="M683.4,381.26h-8.19l-17.63-43.7h11.33l10.56,29h.23l9.92-29h11.5Z"/><path class="cls-4" d="M737.41,381.26v-5.44c-3.46,4.1-9.92,6.86-15.27,6.86-13.15,0-21.26-11.11-21.26-23.55s9-23.07,21.89-23.07a19.27,19.27,0,0,1,12.91,5.2,11.65,11.65,0,0,1,1.58,1.81h.15v-5.51H747v43.7Zm-13.06-35.59c-7.8,0-13,6.45-13,13.93,0,7.33,5.51,13.47,13,13.47,7.79,0,12.75-6.3,12.75-13.78S732.06,345.67,724.35,345.67Z"/><path class="cls-4" d="M768.05,346.85v34.41H757.58V346.85h-5.12v-9.29h5.12V323h10.47v14.57h6.3v9.29Z"/><path class="cls-4" d="M779,332.59V323h10.47v9.6Zm0,48.67v-43.7h10.47v43.7Z"/><path class="cls-4" d="M819,381.26h-8.19l-17.64-43.7h11.34l10.55,29h.24l9.92-29h11.5Z"/><path class="cls-4" d="M881.64,364.09H847.7a8.68,8.68,0,0,0,1.42,3.15,12.64,12.64,0,0,0,10.62,5.83c4.26,0,8-1.73,10.08-5.59h11c-2.84,8.9-11.81,15.2-21.11,15.2a22.78,22.78,0,0,1-23.07-23.15c0-13.08,9.77-23.47,23-23.47a22.44,22.44,0,0,1,22.6,22.76A24.32,24.32,0,0,1,881.64,364.09Zm-21.9-18.42c-6.37,0-10.86,3.78-12.36,10h24.18C870.53,349.37,866.12,345.67,859.74,345.67Z"/><path class="cls-4" d="M966.05,381.26V357c0-5.6-1.49-11.34-8.26-11.34a8.53,8.53,0,0,0-7.25,4.09c-1.49,2.44-1.57,6.14-1.57,8.9v22.6H938.49V357c0-5.75-2.12-11.34-8.74-11.34-7.87,0-8.34,7.87-8.34,13.78v21.81H910.93v-43.7h9.61v3.7h.16c2.36-3.86,7.17-5.2,11.42-5.2a14.66,14.66,0,0,1,12.6,6.85c3.46-5,8.26-6.85,14.09-6.85,5.59,0,11,2.13,14.41,6.77,2.6,3.62,3.31,8.58,3.31,12.92v25.51Z"/><path class="cls-4" d="M1027.78,364.09H993.84a8.85,8.85,0,0,0,1.42,3.15,12.66,12.66,0,0,0,10.63,5.83c4.25,0,8-1.73,10.08-5.59h11c-2.83,8.9-11.81,15.2-21.1,15.2a22.78,22.78,0,0,1-23.07-23.15c0-13.08,9.76-23.47,23-23.47a22.44,22.44,0,0,1,22.6,22.76A24.32,24.32,0,0,1,1027.78,364.09Zm-21.89-18.42c-6.38,0-10.87,3.78-12.36,10h24.17C1016.68,349.37,1012.27,345.67,1005.89,345.67Z"/><path class="cls-4" d="M1069,381.26V375.9h-.16c-2.91,4.65-8.58,6.78-13.94,6.78-12.75,0-22.28-10.79-22.28-23.23a23,23,0,0,1,13.7-21.5,21.33,21.33,0,0,1,8.58-1.89c5.36,0,9.53,1.42,13.23,5.35V323h10.47v58.27Zm-13-35.59c-7.08,0-12.91,6.45-12.91,13.38,0,7.25,5.28,14,12.91,14,7.41,0,12.92-6.54,12.92-13.7S1063.37,345.67,1056,345.67Z"/><path class="cls-4" d="M1086.65,332.59V323h10.47v9.6Zm0,48.67v-43.7h10.47v43.7Z"/><path class="cls-4" d="M1134.62,381.26v-4.41h-.16c-2.92,4-6.22,5.83-11.26,5.83-5.59,0-11.42-2.21-14.65-6.93-3-4.34-3.22-9.93-3.22-15V337.56h10.47v22.28c0,6.3,1.26,13.23,9.13,13.23,7.25,0,8.82-7.33,8.82-13.15V337.56h10.47v43.7Z"/><path class="cls-4" d="M1208,381.26V357c0-5.6-1.49-11.34-8.26-11.34a8.53,8.53,0,0,0-7.25,4.09c-1.5,2.44-1.58,6.14-1.58,8.9v22.6H1180.4V357c0-5.75-2.12-11.34-8.74-11.34-7.87,0-8.34,7.87-8.34,13.78v21.81h-10.48v-43.7h9.61v3.7h.16c2.36-3.86,7.16-5.2,11.41-5.2a14.63,14.63,0,0,1,12.6,6.85c3.47-5,8.27-6.85,14.1-6.85,5.59,0,11,2.13,14.41,6.77,2.6,3.62,3.31,8.58,3.31,12.92v25.51Z"/><path class="cls-4" d="M1240.49,382.68c-4.88,0-10-1.9-13.07-5.75-2.29-2.92-3-5.83-3.31-9.45h10.71c.71,3.15,2.12,5.59,5.75,5.59a4.47,4.47,0,0,0,4.72-4.41,3.92,3.92,0,0,0-.63-2.28c-1.41-2-7-3.47-9.21-4.26-5.83-2-9.76-6.06-9.76-12.52,0-8,7-13.54,14.64-13.54a14,14,0,0,1,14.25,13.39h-10.23c-.48-2.29-1.81-3.78-4.18-3.78a3.83,3.83,0,0,0-4,3.78c0,2.28,1.81,2.91,3.62,3.62,1.26.47,2.52.86,3.78,1.26,6.77,2.12,12.2,5,12.2,13.07A15,15,0,0,1,1240.49,382.68Z"/><path class="cls-4" d="M134.55,276.31C120.34,287.74,99.79,294.7,76,294.7c-22.55,0-42.63-6.8-56.69-18.54C6.64,265.65,0,251.6,0,235.38c0-16.07,6.8-30,19.46-40.48C33.68,183.16,53.91,176.21,76,176.21c29.2,0,51.44,9.27,65.19,26.57l-28.27,9.89C103.81,203.09,91,198,75.85,198c-29,0-49.13,16.07-49.13,37.39,0,11.74,5.41,21.16,16.38,28.42,8.34,5.56,20.08,9.11,32.9,9.11,22.71,0,41.09-9.73,48.51-23.48H70.29V227.81h84.34v6.49C154.63,251.29,147.83,265.5,134.55,276.31Z"/><path class="cls-4" d="M181.08,291.45V179.61h27.19V270h86v21.47Z"/><path class="cls-4" d="M439.91,276.31c-14.05,11.59-34,18.39-56.84,18.39-22.71,0-42.8-6.8-56.7-18.39-12.67-10.5-19.15-24.56-19.15-40.93,0-16.22,6.64-30.13,19.31-40.63C340.74,183,361,176.21,383.22,176.21c22.4,0,42.64,6.95,56.69,18.54,12.67,10.5,19.31,24.41,19.31,40.63C459.22,251.75,452.58,265.81,439.91,276.31Zm-56.69-78.47c-29.2,0-48,15.45-48,37.54,0,22.55,18.38,37.69,47.89,37.69,29.66,0,48.19-15.14,48.19-37.69C431.26,213.29,412.57,197.84,383.22,197.84Z"/><path class="cls-4" d="M628,259.32c0,18.54-16.06,32.13-42.33,32.13H488.24V179.61h94.38c12.67,0,24.57,5.1,32,13.29a27.92,27.92,0,0,1,7.57,19c0,9.26-3.55,15.91-11.43,21.47C621.86,239.55,628,247.73,628,259.32ZM594.67,211.9c0-6.34-4.94-10.82-12.2-10.82h-67v22.09h68.12A11.1,11.1,0,0,0,594.67,211.9Zm5.72,46c0-7.88-6.18-13.28-16.38-13.28H515.43V270h68.12C594.52,270,600.39,265.5,600.39,257.93Z"/><path class="cls-4" d="M763.05,291.45l-12.83-24.1H678.54l-12.82,24.1H638.23L697.7,179.61h33.52l59.32,111.84ZM714.23,200l-24.56,45.88h49.12Z"/><path class="cls-4" d="M809.89,291.45V179.61h27.18V270h86v21.47Z"/><path class="cls-4" d="M1109,218.07c-12.52-12.35-28.74-20.23-48.82-20.23-27.8,0-46.65,15.76-46.65,37.38,0,22.09,19.15,37.69,48.81,37.69,18.85,0,33.83-6.64,47-20.85l23,12.36c-18.53,21.16-39.54,30.12-68.74,30.12-19.77,0-36.45-4.48-52.52-14.37a52.6,52.6,0,0,1-24.56-45c0-16.06,6.64-30.12,19.31-40.62,14.05-11.59,34.14-18.39,56.53-18.39,30.13,0,53.3,10.66,71.37,33.06Z"/><path class="cls-4" d="M1284.93,276.31c-14.06,11.59-34,18.39-56.85,18.39-22.71,0-42.79-6.8-56.69-18.39-12.67-10.5-19.16-24.56-19.16-40.93,0-16.22,6.64-30.13,19.31-40.63,14.21-11.74,34.45-18.54,56.69-18.54,22.4,0,42.64,6.95,56.7,18.54,12.66,10.5,19.31,24.41,19.31,40.63C1304.24,251.75,1297.59,265.81,1284.93,276.31Zm-56.7-78.47c-29.19,0-48,15.45-48,37.54,0,22.55,18.39,37.69,47.89,37.69,29.66,0,48.2-15.14,48.2-37.69C1276.28,213.29,1257.58,197.84,1228.23,197.84Z"/><path class="cls-4" d="M1468,291.45v-79.4h-.47l-53.29,64.11-53.29-64.11h-.47v79.4h-27.19V179.61h31.83l49.12,59.32,49.12-59.32h31.83V291.45Z"/><path class="cls-4" d="M1665.17,291.45v-79.4h-.46l-53.3,64.11-53.29-64.11h-.47v79.4h-27.18V179.61h31.82l49.12,59.32,49.12-59.32h31.83V291.45Z"/><path class="cls-4" d="M1726.43,291.45V270h28.42v21.47Z"/></svg>