<svg id="Calque_1" data-name="Calque 1" xmlns="http://www.w3.org/2000/svg" xmlns:xlink="http://www.w3.org/1999/xlink" viewBox="0 0 404.72 200.68"><defs><style>.cls-1{fill:none;}.cls-2{fill:#fff;}.cls-3{clip-path:url(#clip-path);}</style><clipPath id="clip-path"><rect class="cls-1" x="-83.57" y="235.69" width="1351.73" height="760.35"/></clipPath></defs><title>GC__client2_dark</title><path class="cls-2" d="M117.5,199.09c-6,.28-12.78-1.94-19.34-7.11-7.33-5.64-14.66-15-21.08-28.47L78.82,197a2.71,2.71,0,0,1-2.77,3.06l-9.93.54a2.72,2.72,0,0,1-3-2.8l-3.51-68a2.64,2.64,0,0,1,2.65-3L76,126.11a2.16,2.16,0,0,1,2.34,1.54c2.09,5.74,7.56,15.86,14.3,26.73,10.27,16.64,19,25.59,23.85,25.37,2.91-.18,4.76-2.83,4.48-8.34-.63-12.75-2.46-26.21-5.4-43.76-.34-2,.57-3.74,2.94-3.88l10.53-.43c1.68,0,2.77,1.66,2.94,3,2.05,13.47,4.13,30.07,4.82,43.16C138,192.1,128.35,198.52,117.5,199.09Z"/><path class="cls-2" d="M215.82,163.17c.2,20.8-13.41,34.41-33.13,34.61-20.25.2-34.06-13.07-34.29-33.9L148,125.6a2.68,2.68,0,0,1,2.8-2.83l11.75-.11a2.64,2.64,0,0,1,2.83,2.77l.4,38.82c.14,9.76,6.24,17.86,17.34,17.72,10.27-.11,15.89-9,15.81-18.63l-.4-38.28a2.68,2.68,0,0,1,2.85-2.86l11.1-.11a2.75,2.75,0,0,1,2.94,2.77Z"/><path class="cls-2" d="M282.32,126.2l-.2,10a2.7,2.7,0,0,1-2.88,2.83l-17.81-.37-1.17,55.28a2.68,2.68,0,0,1-2.88,2.86l-11.72-.26a2.66,2.66,0,0,1-2.74-3l1.17-55.29-17.35-.37a2.66,2.66,0,0,1-2.74-3l.2-10a2.66,2.66,0,0,1,2.86-2.74l52.52,1.11A2.65,2.65,0,0,1,282.32,126.2Z"/><path class="cls-2" d="M349.25,179.66c-.58,10.64-9.85,22.11-31.22,20.94-12.52-.66-22.68-3.59-30.52-7.93-1.09-.63-1.57-1.88-.91-3.54l4-9a2.87,2.87,0,0,1,3.77-1.45,80.07,80.07,0,0,0,27.13,6.3c5.7.29,10.07-1.36,10.24-4.85.26-4.67-10-8.27-20.34-13.09-11-5.19-22-11.87-21.43-22.94.66-11.64,8.93-21.82,31.41-20.59a67.68,67.68,0,0,1,25.77,6.78,3.33,3.33,0,0,1,1.79,4.26l-3,8.24a3.27,3.27,0,0,1-4.37,2c-7.7-2.77-14.95-5.51-21.76-5.88s-12.1,1.43-12.3,4.91c-.17,3.25,7.76,6,16.72,10C336.12,159.09,350,166.37,349.25,179.66Z"/><path class="cls-2" d="M356.46,5.29c-29.64-2.28-52.6,19.52-54.83,48-2.28,29.64,16.2,54.17,47.39,56.6,30.69,2.37,53.17-18.86,55.51-49.27C406.79,31.4,388.22,7.74,356.46,5.29Zm24.59,54.06c-1.51,19.37-15.14,30.36-31,29.13s-26.44-14.38-24.9-34c1.42-18.46,15.63-29.07,30.3-27.93S382.48,40.61,381.05,59.35Z"/><path class="cls-2" d="M295.13,86.77l-.35,13.49a3.76,3.76,0,0,1-4,3.86l-25.47-.66c-27.93-.71-43.45-10.36-42.74-39L224,6.06a3.59,3.59,0,0,1,3.88-3.71l15.92.4a3.6,3.6,0,0,1,3.71,3.88l-1.37,54.15c-.57,22,8.42,21.17,23.45,21.54l21.66.57A3.74,3.74,0,0,1,295.13,86.77Z"/><path class="cls-2" d="M209.37,56.56c.85,31.84-18,47.81-44.22,48.3-27.45.48-51.3-18-51.9-51C112.71,25,133.54.58,163.72,0c19.12-.34,30.3,5.82,38.8,14a3.66,3.66,0,0,1,.4,5.16l-8.33,9.67c-1.63,2-3.91,1.92-5.91.12a34.24,34.24,0,0,0-22.59-7.76c-15.18.26-29.67,13.26-29.33,32.24.37,19.71,13.3,30.24,28,30,14.4-.26,21.82-9.78,20.28-19.63l-19.88.35a3.59,3.59,0,0,1-3.85-3.86L161.1,46.8A3.55,3.55,0,0,1,164.81,43l39.28-.43a4.27,4.27,0,0,1,4.48,3.88A87.81,87.81,0,0,1,209.37,56.56Z"/><path class="cls-2" d="M103,52.56C100.73,23.41,78.76,2.87,47,5.32,17.37,7.6-2,32.65.17,61.09c2.28,29.65,24.3,51.07,55.46,48.67C86.32,107.4,105.29,83,103,52.56Zm-49.55,36c-15.89,1.2-28.33-10.16-29.81-29.84-1.43-18.43,11-31.1,25.64-32.24S78.13,36.25,79.56,55C81,74.36,69.26,87.28,53.4,88.51Z"/><g class="cls-3"><path d="M592.23,712.17c-337.9,0-675.8-183.72-675.8-526.09s337.9-526.22,675.8-526.22,675.93,183.72,675.93,526.22S930.26,712.17,592.23,712.17Z"/></g></svg>