<svg id="Calque_1" data-name="Calque 1" xmlns="http://www.w3.org/2000/svg" viewBox="0 0 1754.85 118.48"><defs><style>.cls-1{fill:#fff;}</style></defs><title>GC__Global com wordmark_white</title><path class="cls-1" d="M134.55,100.1C120.34,111.53,99.79,118.48,76,118.48c-22.55,0-42.63-6.79-56.69-18.53C6.64,89.44,0,75.39,0,59.17s6.8-30,19.46-40.48C33.68,7,53.91,0,76,0c29.2,0,51.44,9.27,65.19,26.57l-28.27,9.89C103.81,26.88,91,21.78,75.85,21.78c-29,0-49.13,16.07-49.13,37.39,0,11.74,5.41,21.16,16.38,28.42C51.44,93.15,63.18,96.7,76,96.7c22.71,0,41.09-9.73,48.51-23.48H70.29V51.6h84.34v6.48C154.63,75.08,147.83,89.29,134.55,100.1Z"/><path class="cls-1" d="M181.08,115.24V3.4h27.19V93.77h86v21.47Z"/><path class="cls-1" d="M439.91,100.1c-14.05,11.59-34,18.38-56.84,18.38-22.71,0-42.8-6.79-56.7-18.38-12.67-10.5-19.15-24.56-19.15-40.93,0-16.22,6.64-30.13,19.31-40.63C340.74,6.8,361,0,383.22,0c22.4,0,42.64,7,56.69,18.54C452.58,29,459.22,43,459.22,59.17,459.22,75.54,452.58,89.6,439.91,100.1ZM383.22,21.63c-29.2,0-48,15.45-48,37.54,0,22.55,18.38,37.69,47.89,37.69,29.66,0,48.19-15.14,48.19-37.69C431.26,37.08,412.57,21.63,383.22,21.63Z"/><path class="cls-1" d="M628,83.11c0,18.54-16.06,32.13-42.33,32.13H488.24V3.4h94.38c12.67,0,24.57,5.1,32,13.28a27.94,27.94,0,0,1,7.57,19c0,9.27-3.55,15.92-11.43,21.48C621.86,63.34,628,71.52,628,83.11ZM594.67,35.68c0-6.33-4.94-10.81-12.2-10.81h-67V47h68.12A11.11,11.11,0,0,0,594.67,35.68Zm5.72,46c0-7.88-6.18-13.29-16.38-13.29H515.43V93.77h68.12C594.52,93.77,600.39,89.29,600.39,81.72Z"/><path class="cls-1" d="M763.05,115.24l-12.83-24.1H678.54l-12.82,24.1H638.23L697.7,3.4h33.52l59.32,111.84ZM714.23,23.79,689.67,69.67h49.12Z"/><path class="cls-1" d="M809.89,115.24V3.4h27.18V93.77h86v21.47Z"/><path class="cls-1" d="M1109,41.86c-12.52-12.35-28.74-20.23-48.82-20.23-27.8,0-46.65,15.75-46.65,37.38,0,22.09,19.15,37.69,48.81,37.69,18.85,0,33.83-6.64,47-20.85l23,12.36c-18.53,21.16-39.54,30.12-68.74,30.12-19.77,0-36.45-4.48-52.52-14.37A52.6,52.6,0,0,1,986.46,59c0-16.06,6.64-30.12,19.31-40.63C1019.82,6.8,1039.91,0,1062.3,0c30.13,0,53.3,10.66,71.37,33.06Z"/><path class="cls-1" d="M1284.93,100.1c-14.06,11.59-34,18.38-56.85,18.38-22.71,0-42.79-6.79-56.69-18.38-12.67-10.5-19.16-24.56-19.16-40.93,0-16.22,6.64-30.13,19.31-40.63C1185.75,6.8,1206,0,1228.23,0c22.4,0,42.64,7,56.7,18.54,12.66,10.5,19.31,24.41,19.31,40.63C1304.24,75.54,1297.59,89.6,1284.93,100.1Zm-56.7-78.47c-29.19,0-48,15.45-48,37.54,0,22.55,18.39,37.69,47.89,37.69,29.66,0,48.2-15.14,48.2-37.69C1276.28,37.08,1257.58,21.63,1228.23,21.63Z"/><path class="cls-1" d="M1468,115.24V35.84h-.47L1414.2,100l-53.29-64.11h-.47v79.4h-27.19V3.4h31.83l49.12,59.32L1463.32,3.4h31.83V115.24Z"/><path class="cls-1" d="M1665.17,115.24V35.84h-.46L1611.41,100l-53.29-64.11h-.47v79.4h-27.18V3.4h31.82l49.12,59.32L1660.53,3.4h31.83V115.24Z"/><path class="cls-1" d="M1726.43,115.24V93.77h28.42v21.47Z"/></svg>