<svg id="Calque_1" data-name="Calque 1" xmlns="http://www.w3.org/2000/svg" viewBox="0 0 238.71 238.71"><defs><style>.cls-1{fill:#fff;}</style></defs><title>GC__Icon_dark_recherche et developpement</title><circle class="cls-1" cx="115.24" cy="16.46" r="16.46"/><circle class="cls-1" cx="214.02" cy="181.09" r="16.46"/><circle class="cls-1" cx="16.46" cy="172.86" r="16.46"/><path class="cls-1" d="M49.6,155.43A78.21,78.21,0,0,1,81.84,8.36l1,16.44A61.75,61.75,0,0,0,57.36,140.91Z"/><path class="cls-1" d="M235.76,149l-15.84-4.49A61.77,61.77,0,0,0,135.1,71.31l-6.79-15a78.23,78.23,0,0,1,110.4,71.28A78.44,78.44,0,0,1,235.76,149Z"/><path class="cls-1" d="M94.66,238.71A78.42,78.42,0,0,1,31,206l13.39-9.58a61.74,61.74,0,0,0,111.87-32.25l16.44,1A78.23,78.23,0,0,1,94.66,238.71Z"/><path class="cls-1" d="M151.58,111.83l-24.7-24.69a16.46,16.46,0,0,0-23.28,0L78.91,111.83a16.44,16.44,0,0,0,0,23.28l24.69,24.7a16.46,16.46,0,0,0,23.28,0l24.7-24.7a16.46,16.46,0,0,0,0-23.28Zm-36.34,36.34-24.69-24.7,24.69-24.69,24.69,24.69Z"/></svg>