<svg id="Calque_1" data-name="Calque 1" xmlns="http://www.w3.org/2000/svg" viewBox="0 0 264.29 238.71"><defs><style>.cls-1{fill:#0c0c0c;}</style></defs><title>GC__Plan de travail 14</title><path class="cls-1" d="M191.82,93.78a72.47,72.47,0,1,0,72.47,72.47A72.54,72.54,0,0,0,191.82,93.78ZM247,162H221.59c-.36-16.77-2.88-33.73-7.76-46.57A55.49,55.49,0,0,1,247,162Zm-54.8,59.66h-.14c-3.29-1.4-10.73-15.67-12.61-42.61h24.7C202.31,206,195,220.22,192.22,221.64ZM179.17,162c.74-32.33,9.25-49.57,12.26-51.13h.14c3.61,1.54,12.17,18.79,12.9,51.14Zm-9.36-46.57c-4.87,12.84-7.39,29.8-7.75,46.57H136.62A55.53,55.53,0,0,1,169.81,115.41ZM138,179h24.45c.91,13.89,3.36,27.38,7.4,38A55.59,55.59,0,0,1,138,179Zm75.87,38c4-10.66,6.5-24.15,7.41-38h24.45A55.58,55.58,0,0,1,213.83,217.08Z"/><path class="cls-1" d="M219.94,68.2A85.25,85.25,0,0,0,52.67,69.26,63.91,63.91,0,0,0,63.94,196.09H93.78V179H63.94a46.86,46.86,0,0,1-3.21-93.61l7.13-.49.76-7.1A68.15,68.15,0,0,1,202.37,68.2Z"/></svg>