<svg id="Calque_1" data-name="Calque 1" xmlns="http://www.w3.org/2000/svg" viewBox="0 0 276.26 276.26"><defs><style>.cls-1{fill:#0c0c0c;}</style></defs><title>GC__insta_light</title><path class="cls-1" d="M138.13,24.89c36.88,0,41.25.14,55.81.8,13.47.62,20.79,2.87,25.65,4.76a43,43,0,0,1,15.89,10.33,43,43,0,0,1,10.33,15.88c1.89,4.87,4.14,12.19,4.75,25.65.67,14.57.81,18.94.81,55.82s-.14,41.25-.81,55.81c-.61,13.47-2.86,20.79-4.75,25.65a45.68,45.68,0,0,1-26.22,26.22c-4.86,1.89-12.18,4.14-25.65,4.75-14.56.67-18.93.81-55.81.81s-41.25-.14-55.82-.81c-13.46-.61-20.78-2.86-25.65-4.75a43,43,0,0,1-15.88-10.33,43,43,0,0,1-10.33-15.89c-1.89-4.86-4.14-12.18-4.76-25.65-.66-14.56-.8-18.93-.8-55.81s.14-41.25.8-55.82c.62-13.46,2.87-20.78,4.76-25.65A43,43,0,0,1,40.78,40.78,43,43,0,0,1,56.66,30.45c4.87-1.89,12.19-4.14,25.65-4.76,14.57-.66,18.94-.8,55.82-.8m0-24.89C100.62,0,95.91.16,81.18.83s-24.74,3-33.53,6.42A67.74,67.74,0,0,0,23.18,23.18,67.74,67.74,0,0,0,7.25,47.65C3.84,56.44,1.5,66.48.83,81.18S0,100.62,0,138.13s.16,42.22.83,57,3,24.74,6.42,33.53a67.7,67.7,0,0,0,15.93,24.46A67.77,67.77,0,0,0,47.65,269c8.79,3.41,18.83,5.75,33.53,6.42s19.44.83,56.95.83,42.22-.16,57-.83,24.74-3,33.53-6.42a70.74,70.74,0,0,0,40.4-40.4c3.41-8.79,5.75-18.83,6.42-33.53s.83-19.44.83-57-.16-42.22-.83-56.95-3-24.74-6.42-33.53a67.77,67.77,0,0,0-15.94-24.47A67.7,67.7,0,0,0,228.61,7.25C219.82,3.84,209.78,1.5,195.08.83S175.64,0,138.13,0Z"/><path class="cls-1" d="M138.13,67.2a70.93,70.93,0,1,0,70.93,70.93A70.92,70.92,0,0,0,138.13,67.2Zm0,117a46,46,0,1,1,46-46A46,46,0,0,1,138.13,184.17Z"/><circle class="cls-1" cx="211.86" cy="64.4" r="16.58"/></svg>