<svg id="Calque_1" data-name="Calque 1" xmlns="http://www.w3.org/2000/svg" viewBox="0 0 238.71 238.71"><defs><style>.cls-1{fill:#0c0c0c;}</style></defs><title>GC__Plan de travail 13</title><path class="cls-1" d="M204.61,170.51a33.76,33.76,0,0,0-17.21,4.83l-32.52-32.51a42.34,42.34,0,0,0,0-46.94L176.6,74.17a25.81,25.81,0,1,0-12.06-12.05L142.83,83.83a42.34,42.34,0,0,0-46.94,0L63.37,51.32A33.7,33.7,0,0,0,68.2,34.1,34.1,34.1,0,1,0,34.1,68.2a33.7,33.7,0,0,0,17.22-4.83L83.83,95.89a42.34,42.34,0,0,0,0,46.94L51.32,175.34A34,34,0,1,0,68.2,204.61a33.66,33.66,0,0,0-4.83-17.21l32.52-32.52a42.09,42.09,0,0,0,14.94,6.24v28a25.58,25.58,0,1,0,17,0v-28a42.14,42.14,0,0,0,15-6.24l32.51,32.52a33.76,33.76,0,0,0-4.83,17.21,34.1,34.1,0,1,0,34.1-34.1ZM119.36,93.78a25.58,25.58,0,1,1-25.58,25.58A25.6,25.6,0,0,1,119.36,93.78ZM17.05,34.1a17,17,0,1,1,17.05,17A17.07,17.07,0,0,1,17.05,34.1ZM34.1,221.66a17,17,0,1,1,17-17A17.07,17.07,0,0,1,34.1,221.66Zm170.51,0a17,17,0,1,1,17-17A17.07,17.07,0,0,1,204.61,221.66Z"/></svg>