<svg id="Calque_1" data-name="Calque 1" xmlns="http://www.w3.org/2000/svg" viewBox="0 0 276.25 276.25"><defs><style>.cls-1{fill:#0c0c0c;}</style></defs><title>GC__facebook_light</title><path class="cls-1" d="M260.9,0H15.35A15.35,15.35,0,0,0,0,15.35V260.9a15.35,15.35,0,0,0,15.35,15.35H147.56V169.43H111.69V127.61h35.87V96.92c0-35.68,21.8-55.14,53.72-55.14a297.62,297.62,0,0,1,32.15,1.65V80.57h-22c-17.31,0-20.68,8.25-20.68,20.34v26.63h41.4l-5.37,41.82h-36V276.25H260.9a15.35,15.35,0,0,0,15.35-15.35V15.35A15.35,15.35,0,0,0,260.9,0Z"/></svg>