<svg id="Calque_1" data-name="Calque 1" xmlns="http://www.w3.org/2000/svg" xmlns:xlink="http://www.w3.org/1999/xlink" viewBox="0 0 1351.73 760.35" style="opacity: 0.05;"><defs><style>.cls-1{fill:none;}.cls-2{clip-path:url(#clip-path);}.cls-3{clip-path:url(#clip-path-2);}</style><clipPath id="clip-path"><rect class="cls-1" width="1351.73" height="760.35"/></clipPath><clipPath id="clip-path-2"><rect class="cls-1" y="935.26" width="1351.73" height="760.35"/></clipPath></defs><title>GC__GC_pattern 1</title><rect class="cls-1" width="1351.73" height="760.35"/><g class="cls-2"><path d="M675.8,476.48C337.9,476.48,0,292.76,0-49.61S337.9-575.83,675.8-575.83,1351.73-392.1,1351.73-49.61,1013.83,476.48,675.8,476.48Z"/><path d="M1054.38,1066C845.54,1066,636.7,952.44,636.7,740.85s208.84-325.23,417.68-325.23,417.76,113.55,417.76,325.23S1263.3,1066,1054.38,1066Z"/></g><g class="cls-3"><path d="M1054.38,629.61c-208.84,0-417.68,113.55-417.68,325.15S845.54,1280,1054.38,1280s417.76-113.55,417.76-325.23S1263.3,629.61,1054.38,629.61Z"/></g></svg>