<svg id="Calque_1" data-name="Calque 1" xmlns="http://www.w3.org/2000/svg" viewBox="0 0 238.71 255.76"><defs><style>.cls-1{fill:#fff;}</style></defs><title>GC__Automation icon_white</title><circle class="cls-1" cx="119.36" cy="17.05" r="17.05"/><circle class="cls-1" cx="119.36" cy="238.71" r="17.05"/><path class="cls-1" d="M157,115.83,131.41,90.25a17,17,0,0,0-24.11,0L81.72,115.83a17.06,17.06,0,0,0,0,24.11l25.58,25.57a17,17,0,0,0,24.11,0L157,139.94a17.06,17.06,0,0,0,0-24.11Zm-37.63,37.63L93.78,127.88l25.58-25.57,25.57,25.57Z"/><path class="cls-1" d="M49.19,134.7A63.95,63.95,0,0,1,63.94,8.53H85.25v17H63.94A46.89,46.89,0,0,0,53.11,118.1Z"/><path class="cls-1" d="M174.77,247.24H153.46V230.19h21.31a46.9,46.9,0,0,0,10.83-92.53l3.92-16.59a63.95,63.95,0,0,1-14.75,126.17Z"/></svg>